<?xml version="1.0" encoding="UTF-8" standalone="no"?>
<svg
   xmlns:dc="http://purl.org/dc/elements/1.1/"
   xmlns:cc="http://creativecommons.org/ns#"
   xmlns:rdf="http://www.w3.org/1999/02/22-rdf-syntax-ns#"
   xmlns:svg="http://www.w3.org/2000/svg"
   xmlns="http://www.w3.org/2000/svg"
   xmlns:sodipodi="http://sodipodi.sourceforge.net/DTD/sodipodi-0.dtd"
   xmlns:inkscape="http://www.inkscape.org/namespaces/inkscape"
   version="1.2"
   overflow="visible"
   preserveAspectRatio="none"
   viewBox="0 0 32.99999 30.999990000000004"
   width="32.99999"
   height="30.999990000000004"
   id="svg11"
   sodipodi:docname="computer.svg"
   inkscape:version="1.0 (b51213c273, 2020-08-10)">
  <metadata
     id="metadata17">
    <rdf:RDF>
      <cc:Work
         rdf:about="">
        <dc:format>image/svg+xml</dc:format>
        <dc:type
           rdf:resource="http://purl.org/dc/dcmitype/StillImage" />
      </cc:Work>
    </rdf:RDF>
  </metadata>
  <defs
     id="defs15">
    <path
       id="path-159784136625542"
       d="M2.4169921875 19.807368421052743 C2.4169921875 19.807368421052743 30.5830078125 19.807368421052743 30.5830078125 19.807368421052743 C30.849972656250014 19.807368421052743 31.06640625 19.5882800000001 31.06640625 19.317894736842206 C31.06640625 19.317894736842206 31.06640625 3.6547368421052835 31.06640625 3.6547368421052835 C31.06640625 3.3843515789473857 30.849972656250014 3.1652631578947528 30.5830078125 3.1652631578947528 C30.5830078125 3.1652631578947528 2.4169921875 3.1652631578947528 2.4169921875 3.1652631578947528 C2.15002734375 3.1652631578947528 1.93359375 3.3843515789473857 1.93359375 3.6547368421052835 C1.93359375 3.6547368421052835 1.93359375 10.507368421052686 1.93359375 10.507368421052686 C1.93359375 10.777753684210586 2.15002734375 10.996842105263216 2.4169921875 10.996842105263216 C2.68395703125 10.996842105263216 2.900390625 10.777753684210586 2.900390625 10.507368421052686 C2.900390625 10.507368421052686 2.900390625 4.1442105263158115 2.900390625 4.1442105263158115 C2.900390625 4.1442105263158115 30.099609375 4.1442105263158115 30.099609375 4.1442105263158115 C30.099609375 4.1442105263158115 30.099609375 18.828421052631676 30.099609375 18.828421052631676 C30.099609375 18.828421052631676 2.900390625 18.828421052631676 2.900390625 18.828421052631676 C2.900390625 18.828421052631676 2.900390625 12.465263157894805 2.900390625 12.465263157894805 C2.900390625 12.194877894736907 2.68395703125 11.975789473684276 2.4169921875 11.975789473684276 C2.15002734375 11.975789473684276 1.93359375 12.194877894736907 1.93359375 12.465263157894805 C1.93359375 12.465263157894805 1.93359375 19.317894736842206 1.93359375 19.317894736842206 C1.93359375 19.5882800000001 2.15002734375 19.807368421052743 2.4169921875 19.807368421052743 Z"
       vector-effect="non-scaling-stroke" />
    <path
       id="path-159784136625240"
       d="M1.5,0c-0.82713,0 -1.5,0.67293 -1.5,1.5c0,0.82707 0.67287,1.5 1.5,1.5c0.82713,0 1.5,-0.67293 1.5,-1.5c0,-0.82707 -0.67287,-1.5 -1.5,-1.5zM1.5,2c-0.27573,0 -0.5,-0.22427 -0.5,-0.5c0,-0.27573 0.22427,-0.5 0.5,-0.5c0.27573,0 0.5,0.22427 0.5,0.5c0,0.27573 -0.22427,0.5 -0.5,0.5z"
       vector-effect="non-scaling-stroke" />
  </defs>
  <sodipodi:namedview
     pagecolor="#ffffff"
     bordercolor="#666666"
     borderopacity="1"
     objecttolerance="10"
     gridtolerance="10"
     guidetolerance="10"
     inkscape:pageopacity="0"
     inkscape:pageshadow="2"
     inkscape:window-width="1920"
     inkscape:window-height="1028"
     id="namedview13"
     showgrid="false"
     inkscape:zoom="23.709685"
     inkscape:cx="16.499994"
     inkscape:cy="25.622441"
     inkscape:window-x="1680"
     inkscape:window-y="28"
     inkscape:window-maximized="1"
     inkscape:current-layer="svg11" />
  <g
     id="g90">
    <g
       id="g9">
      <g
         id="g4">
        <path
           style="fill:#ffffff;stroke-width:0px;stroke-linecap:butt;stroke-linejoin:miter"
           d="M 30.58301,0 H 2.41699 C 1.08423,0 0,1.09786 0,2.44737 v 21.53684 c 0,1.34951 1.08423,2.44737 2.41699,2.44737 h 10.31617 l -0.58182,2.06192 c -0.23364,0.82806 -1.14952,1.52755 -1.99998,1.52755 h -3.6416 c -0.26696,0 -0.4834,0.21909 -0.4834,0.48947 0,0.27039 0.21643,0.48947 0.4834,0.48947 h 19.98047 c 0.26696,0 0.4834,-0.21909 0.4834,-0.48947 0,-0.27039 -0.21643,-0.48947 -0.4834,-0.48947 h -3.6416 c -0.85046,0 -1.76634,-0.69956 -1.99998,-1.52755 L 20.26683,26.43158 H 30.583 c 1.33276,0 2.41699,-1.09786 2.41699,-2.44737 V 2.44737 C 32.99999,1.09786 31.91576,0 30.583,0 Z M 2.41699,0.97895 h 28.16602 c 0.79967,0 1.4502,0.65877 1.4502,1.46842 V 19.57895 H 0.9668 V 2.44737 c 0,-0.80965 0.65053,-1.46842 1.4502,-1.46842 z m 17.50205,27.7835 c 0.13264,0.47022 0.39632,0.9022 0.74198,1.2586 h -8.32206 c 0.34566,-0.3564 0.60934,-0.78844 0.74198,-1.2586 l 0.65768,-2.33087 h 5.52267 z M 30.58301,25.45263 H 2.41699 c -0.79967,0 -1.4502,-0.65877 -1.4502,-1.46842 V 20.55789 H 32.0332 v 3.42632 c 0,0.80965 -0.65053,1.46842 -1.4502,1.46842 z"
           vector-effect="non-scaling-stroke"
           id="path2" />
      </g>
      <defs
         id="defs7">
        <path
           id="path-159784136625644"
           d="M 30.58301,0 H 2.41699 C 1.08423,0 0,1.09786 0,2.44737 v 21.53684 c 0,1.34951 1.08423,2.44737 2.41699,2.44737 h 10.31617 l -0.58182,2.06192 c -0.23364,0.82806 -1.14952,1.52755 -1.99998,1.52755 h -3.6416 c -0.26696,0 -0.4834,0.21909 -0.4834,0.48947 0,0.27039 0.21643,0.48947 0.4834,0.48947 h 19.98047 c 0.26696,0 0.4834,-0.21909 0.4834,-0.48947 0,-0.27039 -0.21643,-0.48947 -0.4834,-0.48947 h -3.6416 c -0.85046,0 -1.76634,-0.69956 -1.99998,-1.52755 L 20.26683,26.43158 H 30.583 c 1.33276,0 2.41699,-1.09786 2.41699,-2.44737 V 2.44737 C 32.99999,1.09786 31.91576,0 30.583,0 Z M 2.41699,0.97895 h 28.16602 c 0.79967,0 1.4502,0.65877 1.4502,1.46842 V 19.57895 H 0.9668 V 2.44737 c 0,-0.80965 0.65053,-1.46842 1.4502,-1.46842 z m 17.50205,27.7835 c 0.13264,0.47022 0.39632,0.9022 0.74198,1.2586 h -8.32206 c 0.34566,-0.3564 0.60934,-0.78844 0.74198,-1.2586 l 0.65768,-2.33087 h 5.52267 z M 30.58301,25.45263 H 2.41699 c -0.79967,0 -1.4502,-0.65877 -1.4502,-1.46842 V 20.55789 H 32.0332 v 3.42632 c 0,0.80965 -0.65053,1.46842 -1.4502,1.46842 z"
           vector-effect="non-scaling-stroke" />
      </defs>
    </g>
    <g
       style="overflow:visible"
       id="g45"
       transform="translate(1.9549157,2.1185913)">
      <g
         id="g28">
        <defs
           id="defs22">
          <path
             id="path39"
             d="m 2.4169922,19.807368 c 0,0 28.1660158,0 28.1660158,0 0.266965,0 0.483398,-0.219088 0.483398,-0.489473 0,0 0,-15.6631582 0,-15.6631582 0,-0.2703852 -0.216433,-0.4894736 -0.483398,-0.4894736 0,0 -28.1660158,0 -28.1660158,0 -0.2669649,0 -0.4833985,0.2190884 -0.4833985,0.4894736 0,0 0,6.8526312 0,6.8526312 0,0.270386 0.2164336,0.489474 0.4833985,0.489474 0.2669648,0 0.4833984,-0.219088 0.4833984,-0.489474 0,0 0,-6.3631575 0,-6.3631575 0,0 27.1992184,0 27.1992184,0 0,0 0,14.6842105 0,14.6842105 0,0 -27.1992184,0 -27.1992184,0 0,0 0,-6.363158 0,-6.363158 0,-0.270385 -0.2164336,-0.489474 -0.4833984,-0.489474 -0.2669649,0 -0.4833985,0.219089 -0.4833985,0.489474 0,0 0,6.852632 0,6.852632 0,0.270385 0.2164336,0.489473 0.4833985,0.489473 z"
             vector-effect="non-scaling-stroke" />
        </defs>
        <g
           transform="translate(-1.9335937,-3.1652632)"
           id="g26">
          <path
             style="fill:#ffffff;stroke-width:0px;stroke-linecap:butt;stroke-linejoin:miter"
             d="m 2.4169922,19.807368 c 0,0 28.1660158,0 28.1660158,0 0.266965,0 0.483398,-0.219088 0.483398,-0.489473 0,0 0,-15.6631582 0,-15.6631582 0,-0.2703852 -0.216433,-0.4894736 -0.483398,-0.4894736 0,0 -28.1660158,0 -28.1660158,0 -0.2669649,0 -0.4833985,0.2190884 -0.4833985,0.4894736 0,0 0,6.8526312 0,6.8526312 0,0.270386 0.2164336,0.489474 0.4833985,0.489474 0.2669648,0 0.4833984,-0.219088 0.4833984,-0.489474 0,0 0,-6.3631575 0,-6.3631575 0,0 27.1992184,0 27.1992184,0 0,0 0,14.6842105 0,14.6842105 0,0 -27.1992184,0 -27.1992184,0 0,0 0,-6.363158 0,-6.363158 0,-0.270385 -0.2164336,-0.489474 -0.4833984,-0.489474 -0.2669649,0 -0.4833985,0.219089 -0.4833985,0.489474 0,0 0,6.852632 0,6.852632 0,0.270385 0.2164336,0.489473 0.4833985,0.489473 z"
             vector-effect="non-scaling-stroke"
             id="path24" />
        </g>
      </g>
    </g>
    <g
       style="overflow:visible"
       id="g71"
       transform="translate(15.165254,21.492244)">
      <g
         id="g54">
        <g
           id="g49">
          <path
             style="fill:#ffffff;stroke-width:0px;stroke-linecap:butt;stroke-linejoin:miter"
             d="M 1.5,0 C 0.67287,0 0,0.67293 0,1.5 0,2.32707 0.67287,3 1.5,3 2.32713,3 3,2.32707 3,1.5 3,0.67293 2.32713,0 1.5,0 Z m 0,2 C 1.22427,2 1,1.77573 1,1.5 1,1.22427 1.22427,1 1.5,1 1.77573,1 2,1.22427 2,1.5 2,1.77573 1.77573,2 1.5,2 Z"
             vector-effect="non-scaling-stroke"
             id="path47" />
        </g>
        <defs
           id="defs52">
          <path
             id="path67"
             d="M 1.5,0 C 0.67287,0 0,0.67293 0,1.5 0,2.32707 0.67287,3 1.5,3 2.32713,3 3,2.32707 3,1.5 3,0.67293 2.32713,0 1.5,0 Z m 0,2 C 1.22427,2 1,1.77573 1,1.5 1,1.22427 1.22427,1 1.5,1 1.77573,1 2,1.22427 2,1.5 2,1.77573 1.77573,2 1.5,2 Z"
             vector-effect="non-scaling-stroke" />
        </defs>
      </g>
    </g>
  </g>
</svg>
