<?xml version="1.0" encoding="UTF-8" standalone="no"?>
<svg
   xmlns:dc="http://purl.org/dc/elements/1.1/"
   xmlns:cc="http://creativecommons.org/ns#"
   xmlns:rdf="http://www.w3.org/1999/02/22-rdf-syntax-ns#"
   xmlns:svg="http://www.w3.org/2000/svg"
   xmlns="http://www.w3.org/2000/svg"
   xmlns:sodipodi="http://sodipodi.sourceforge.net/DTD/sodipodi-0.dtd"
   xmlns:inkscape="http://www.inkscape.org/namespaces/inkscape"
   version="1.2"
   overflow="visible"
   preserveAspectRatio="none"
   viewBox="0 0 34.384316 30.663814"
   width="34.384315"
   height="30.663815"
   id="svg11"
   sodipodi:docname="dumbbell.svg"
   inkscape:version="1.0 (b51213c273, 2020-08-10)">
  <metadata
     id="metadata17">
    <rdf:RDF>
      <cc:Work
         rdf:about="">
        <dc:format>image/svg+xml</dc:format>
        <dc:type
           rdf:resource="http://purl.org/dc/dcmitype/StillImage" />
      </cc:Work>
    </rdf:RDF>
  </metadata>
  <defs
     id="defs15" />
  <sodipodi:namedview
     pagecolor="#ffffff"
     bordercolor="#666666"
     borderopacity="1"
     objecttolerance="10"
     gridtolerance="10"
     guidetolerance="10"
     inkscape:pageopacity="0"
     inkscape:pageshadow="2"
     inkscape:window-width="1680"
     inkscape:window-height="1026"
     id="namedview13"
     showgrid="false"
     inkscape:zoom="17.500008"
     inkscape:cx="29.278907"
     inkscape:cy="21.114416"
     inkscape:window-x="0"
     inkscape:window-y="30"
     inkscape:window-maximized="1"
     inkscape:current-layer="svg11" />
  <g
     transform="translate(-3.5746306,17.061273)"
     id="g9">
    <g
       transform="rotate(-35.016774,-2.0849884e-5,-1.0849884e-5)"
       id="g4">
      <path
         style="fill:#ffffff;stroke-width:0px;stroke-linecap:butt;stroke-linejoin:miter"
         d="M 34.76953,7.19702 H 33.89062 V 3.68543 c 0,-0.82435 -0.67816,-1.49503 -1.51172,-1.49503 h -2.25 c -0.15926,0 -0.31275,0.02482 -0.45703,0.07023 V 2.05133 C 29.67187,0.92025 28.74135,1e-5 27.59765,1e-5 h -2.8125 c -1.1437,0 -2.07422,0.92025 -2.07422,2.05132 V 8.19077 H 13.28906 V 2.05133 C 13.28906,0.92025 12.35854,1e-5 11.21484,1e-5 h -2.8125 c -1.1437,0 -2.07422,0.92025 -2.07422,2.05132 v 0.2093 C 6.18384,2.21522 6.03035,2.1904 5.87109,2.1904 h -2.25 c -0.83355,0 -1.51172,0.67068 -1.51172,1.49503 v 0.6736 c 0,0.28802 0.23611,0.52152 0.52734,0.52152 0.29123,0 0.52734,-0.2335 0.52734,-0.52152 v -0.6736 c 0,-0.24922 0.20503,-0.45199 0.45703,-0.45199 h 2.25 c 0.252,0 0.45703,0.20277 0.45703,0.45199 v 13.62914 c 0,0.24922 -0.20503,0.45199 -0.45703,0.45199 h -2.25 c -0.252,0 -0.45703,-0.20277 -0.45703,-0.45199 V 6.59059 c 0,-0.28802 -0.23611,-0.52152 -0.52734,-0.52152 -0.29123,0 -0.52734,0.2335 -0.52734,0.52152 V 7.19702 H 1.23046 c -0.67845,0 -1.23047,0.54593 -1.23047,1.21689 v 4.17219 c 0,0.67096 0.55202,1.21689 1.23047,1.21689 h 0.87891 v 3.51159 c 0,0.82435 0.67816,1.49503 1.51172,1.49503 h 2.25 c 0.15926,0 0.31275,-0.02482 0.45703,-0.07023 v 0.2093 C 6.32812,20.07976 7.25864,21 8.40234,21 h 2.8125 c 1.1437,0 2.07422,-0.92025 2.07422,-2.05132 v -6.13944 h 0.76753 c 0.29123,0 0.52734,-0.2335 0.52734,-0.52152 0,-0.28802 -0.23611,-0.52152 -0.52734,-0.52152 H 13.28906 V 9.23382 h 9.42188 V 11.7662 H 16.3426 c -0.29123,0 -0.52734,0.2335 -0.52734,0.52152 0,0.28802 0.23611,0.52152 0.52734,0.52152 h 6.36834 v 6.13944 c 0,1.13108 0.93052,2.05132 2.07422,2.05132 h 2.8125 c 1.1437,0 2.07422,-0.92025 2.07422,-2.05132 v -0.2093 c 0.14428,0.04541 0.29777,0.07023 0.45703,0.07023 h 2.25 c 0.83355,0 1.51172,-0.67068 1.51172,-1.49503 v -0.70426 c 0,-0.28802 -0.23611,-0.52152 -0.52734,-0.52152 -0.29123,0 -0.52734,0.2335 -0.52734,0.52152 v 0.70426 c 0,0.24922 -0.20503,0.45199 -0.45703,0.45199 h -2.25 c -0.252,0 -0.45703,-0.20277 -0.45703,-0.45199 V 3.68544 c 0,-0.24922 0.20503,-0.45199 0.45703,-0.45199 h 2.25 c 0.252,0 0.45703,0.20277 0.45703,0.45199 v 10.67384 c 0,0.28802 0.23611,0.52152 0.52734,0.52152 0.29123,0 0.52734,-0.2335 0.52734,-0.52152 v -0.55629 h 0.87891 c 0.67845,0 1.23047,-0.54593 1.23047,-1.21689 V 8.41391 c 0,-0.67096 -0.55202,-1.21689 -1.23047,-1.21689 z M 1.23047,12.75993 c -0.09689,0 -0.17578,-0.07802 -0.17578,-0.17384 V 8.4139 c 0,-0.09582 0.07889,-0.17384 0.17578,-0.17384 h 0.87891 v 4.51987 z m 11.00391,6.18875 c 0,0.55594 -0.45738,1.00828 -1.01953,1.00828 h -2.8125 c -0.56215,0 -1.01953,-0.45233 -1.01953,-1.00828 V 2.05133 c 0,-0.55594 0.45738,-1.00828 1.01953,-1.00828 h 2.8125 c 0.56215,0 1.01953,0.45233 1.01953,1.00828 z m 16.38281,0 c 0,0.55594 -0.45738,1.00828 -1.01953,1.00828 h -2.8125 c -0.56215,0 -1.01953,-0.45233 -1.01953,-1.00828 V 2.05133 c 0,-0.55594 0.45738,-1.00828 1.01953,-1.00828 h 2.8125 c 0.56215,0 1.01953,0.45233 1.01953,1.00828 z m 6.32812,-6.36259 c 0,0.09582 -0.07889,0.17384 -0.17578,0.17384 H 33.89062 V 8.24006 h 0.87891 c 0.09689,0 0.17578,0.07802 0.17578,0.17384 z"
         vector-effect="non-scaling-stroke"
         id="path2" />
    </g>
    <defs
       id="defs7">
      <path
         id="path-1597841366538102"
         d="M 34.76953,7.19702 H 33.89062 V 3.68543 c 0,-0.82435 -0.67816,-1.49503 -1.51172,-1.49503 h -2.25 c -0.15926,0 -0.31275,0.02482 -0.45703,0.07023 V 2.05133 C 29.67187,0.92025 28.74135,1e-5 27.59765,1e-5 h -2.8125 c -1.1437,0 -2.07422,0.92025 -2.07422,2.05132 V 8.19077 H 13.28906 V 2.05133 C 13.28906,0.92025 12.35854,1e-5 11.21484,1e-5 h -2.8125 c -1.1437,0 -2.07422,0.92025 -2.07422,2.05132 v 0.2093 C 6.18384,2.21522 6.03035,2.1904 5.87109,2.1904 h -2.25 c -0.83355,0 -1.51172,0.67068 -1.51172,1.49503 v 0.6736 c 0,0.28802 0.23611,0.52152 0.52734,0.52152 0.29123,0 0.52734,-0.2335 0.52734,-0.52152 v -0.6736 c 0,-0.24922 0.20503,-0.45199 0.45703,-0.45199 h 2.25 c 0.252,0 0.45703,0.20277 0.45703,0.45199 v 13.62914 c 0,0.24922 -0.20503,0.45199 -0.45703,0.45199 h -2.25 c -0.252,0 -0.45703,-0.20277 -0.45703,-0.45199 V 6.59059 c 0,-0.28802 -0.23611,-0.52152 -0.52734,-0.52152 -0.29123,0 -0.52734,0.2335 -0.52734,0.52152 V 7.19702 H 1.23046 c -0.67845,0 -1.23047,0.54593 -1.23047,1.21689 v 4.17219 c 0,0.67096 0.55202,1.21689 1.23047,1.21689 h 0.87891 v 3.51159 c 0,0.82435 0.67816,1.49503 1.51172,1.49503 h 2.25 c 0.15926,0 0.31275,-0.02482 0.45703,-0.07023 v 0.2093 C 6.32812,20.07976 7.25864,21 8.40234,21 h 2.8125 c 1.1437,0 2.07422,-0.92025 2.07422,-2.05132 v -6.13944 h 0.76753 c 0.29123,0 0.52734,-0.2335 0.52734,-0.52152 0,-0.28802 -0.23611,-0.52152 -0.52734,-0.52152 H 13.28906 V 9.23382 h 9.42188 V 11.7662 H 16.3426 c -0.29123,0 -0.52734,0.2335 -0.52734,0.52152 0,0.28802 0.23611,0.52152 0.52734,0.52152 h 6.36834 v 6.13944 c 0,1.13108 0.93052,2.05132 2.07422,2.05132 h 2.8125 c 1.1437,0 2.07422,-0.92025 2.07422,-2.05132 v -0.2093 c 0.14428,0.04541 0.29777,0.07023 0.45703,0.07023 h 2.25 c 0.83355,0 1.51172,-0.67068 1.51172,-1.49503 v -0.70426 c 0,-0.28802 -0.23611,-0.52152 -0.52734,-0.52152 -0.29123,0 -0.52734,0.2335 -0.52734,0.52152 v 0.70426 c 0,0.24922 -0.20503,0.45199 -0.45703,0.45199 h -2.25 c -0.252,0 -0.45703,-0.20277 -0.45703,-0.45199 V 3.68544 c 0,-0.24922 0.20503,-0.45199 0.45703,-0.45199 h 2.25 c 0.252,0 0.45703,0.20277 0.45703,0.45199 v 10.67384 c 0,0.28802 0.23611,0.52152 0.52734,0.52152 0.29123,0 0.52734,-0.2335 0.52734,-0.52152 v -0.55629 h 0.87891 c 0.67845,0 1.23047,-0.54593 1.23047,-1.21689 V 8.41391 c 0,-0.67096 -0.55202,-1.21689 -1.23047,-1.21689 z M 1.23047,12.75993 c -0.09689,0 -0.17578,-0.07802 -0.17578,-0.17384 V 8.4139 c 0,-0.09582 0.07889,-0.17384 0.17578,-0.17384 h 0.87891 v 4.51987 z m 11.00391,6.18875 c 0,0.55594 -0.45738,1.00828 -1.01953,1.00828 h -2.8125 c -0.56215,0 -1.01953,-0.45233 -1.01953,-1.00828 V 2.05133 c 0,-0.55594 0.45738,-1.00828 1.01953,-1.00828 h 2.8125 c 0.56215,0 1.01953,0.45233 1.01953,1.00828 z m 16.38281,0 c 0,0.55594 -0.45738,1.00828 -1.01953,1.00828 h -2.8125 c -0.56215,0 -1.01953,-0.45233 -1.01953,-1.00828 V 2.05133 c 0,-0.55594 0.45738,-1.00828 1.01953,-1.00828 h 2.8125 c 0.56215,0 1.01953,0.45233 1.01953,1.00828 z m 6.32812,-6.36259 c 0,0.09582 -0.07889,0.17384 -0.17578,0.17384 H 33.89062 V 8.24006 h 0.87891 c 0.09689,0 0.17578,0.07802 0.17578,0.17384 z"
         vector-effect="non-scaling-stroke" />
    </defs>
  </g>
</svg>
