<?xml version="1.0" encoding="UTF-8" standalone="no"?>
<svg
   xmlns:dc="http://purl.org/dc/elements/1.1/"
   xmlns:cc="http://creativecommons.org/ns#"
   xmlns:rdf="http://www.w3.org/1999/02/22-rdf-syntax-ns#"
   xmlns:svg="http://www.w3.org/2000/svg"
   xmlns="http://www.w3.org/2000/svg"
   xmlns:sodipodi="http://sodipodi.sourceforge.net/DTD/sodipodi-0.dtd"
   xmlns:inkscape="http://www.inkscape.org/namespaces/inkscape"
   width="61.320545mm"
   height="70.334541mm"
   viewBox="0 0 61.320545 70.334541"
   version="1.1"
   id="svg8"
   inkscape:version="1.0.1 (3bc2e813f5, 2020-09-07)"
   sodipodi:docname="arrow.svg">
  <defs
     id="defs2">
    <path
       id="path-16007796692804582"
       d="m 112.83158,17.615493 c -3.48613,-1.01947 -7.16421,-1.39288 -10.80513,-1.167649 -3.640931,0.225232 -7.244706,1.025398 -10.675103,2.252318 -6.866986,2.471622 -13.071422,6.543575 -18.260362,11.5046 -2.588278,2.489404 -4.996986,5.18033 -7.034171,8.096489 -2.043377,2.910231 -3.733808,6.057548 -4.76788,9.400462 -1.052649,3.336986 -1.35606,6.869568 -0.767815,10.295461 0.575861,3.408112 2.030993,6.727317 4.445894,9.275992 1.201258,1.280264 2.613046,2.353079 4.210595,3.105827 1.591358,0.764602 3.343708,1.22692 5.120827,1.39288 3.535662,0.337848 7.26947,-0.557152 9.870132,-2.827251 1.287947,-1.120231 2.309635,-2.560529 2.736887,-4.137151 0.45202,-1.570695 0.123841,-3.212516 -0.835927,-4.569834 -0.947384,-1.35139 -2.334404,-2.465695 -3.900993,-3.259933 -1.541821,-0.823874 -3.219867,-1.446225 -4.97841,-1.730728 -1.752351,-0.308212 -3.548046,-0.367483 -5.325165,-0.219305 -1.783311,0.154106 -3.535662,0.56308 -5.226092,1.120232 -1.696623,0.557152 -3.306556,1.333609 -4.805033,2.270099 -1.498476,0.93649 -2.879304,2.015231 -4.086754,3.295496 -1.219835,1.256556 -2.303444,2.637582 -3.250828,4.101588 -0.928808,1.475861 -1.715198,3.034702 -2.377748,4.64096 -0.668741,1.606258 -1.170298,3.277714 -1.572781,4.966953 -0.396291,1.689238 -0.681126,3.408111 -0.835927,5.13884 -0.321987,3.461456 -0.216722,6.958475 0.371523,10.378441 0.557285,3.419966 1.640894,6.76288 3.201291,9.85093 0.792583,1.54105 1.739967,2.99913 2.786424,4.38016 1.095993,1.33954 2.272483,2.62573 3.62235,3.72225 1.362252,1.0906 2.77404,2.09229 4.371589,2.78576 0,0 0.588245,0.28451 0.588245,0.28451 0.198146,0.0889 0.408675,0.1541 0.613013,0.23115 0,0 1.226027,0.45047 1.226027,0.45047 0.854503,0.20745 1.678046,0.50381 2.551125,0.62235 1.721391,0.36155 3.492318,0.42083 5.244668,0.37341 1.758543,-0.0652 3.479934,-0.40897 5.151788,-0.88315 1.640894,-0.55715 3.213675,-1.27433 4.606887,-2.24046 0.352947,-0.23116 0.656357,-0.52752 0.990728,-0.78238 0,0 0.489172,-0.39712 0.489172,-0.39712 0,0 0.433444,-0.45047 0.433444,-0.45047 0.278642,-0.30821 0.588245,-0.59271 0.848311,-0.91278 0,0 0.730662,-1.00761 0.730662,-1.00761 0.501557,-0.66977 0.860696,-1.38696 1.052649,-2.05672 0.185762,-0.6757 0.160994,-1.28027 -0.0805,-1.95596 -0.117649,-0.33192 -0.284834,-0.66977 -0.48298,-0.99577 -0.204337,-0.32599 -0.464404,-0.62235 -0.687317,-0.94241 -0.272451,-0.27858 -0.538709,-0.56901 -0.835927,-0.8298 -0.328179,-0.231163 -0.60063,-0.515666 -0.959769,-0.699408 -1.356059,-0.85351 -2.984569,-1.35139 -4.656423,-1.511423 -1.678046,-0.154106 -3.399437,0.03556 -5.00937,0.515662 -1.62851,0.486026 -3.07745,1.256556 -4.377781,2.335299 -1.294139,1.07281 -2.396324,2.36493 -3.300364,3.78745 -1.820463,2.85096 -2.848344,6.19387 -3.343708,9.57827 -0.996921,6.82216 0.154801,13.87547 2.83596,20.3005 2.68735,6.43688 6.972251,12.27513 12.377912,16.93979 2.718311,2.31159 5.67192,4.3861 8.897979,6.02199 3.207483,1.66553 6.656457,2.89245 10.210695,3.71632 0,0 0.0062,0 0.0062,0 0.278642,0.0652 0.452019,0.33785 0.383907,0.60457 -0.06811,0.2608 -0.334371,0.42083 -0.606821,0.37341 -7.399503,-1.33953 -14.328409,-4.7595 -20.06225,-9.44195 -5.70288,-4.74172 -10.284999,-10.72814 -13.238607,-17.41989 -2.922649,-6.69176 -4.154868,-14.13626 -3.157947,-21.40295 0.507748,-3.62149 1.572781,-7.25483 3.603774,-10.48513 1.015497,-1.60626 2.260099,-3.11175 3.777152,-4.368308 0.755431,-0.60457 1.578974,-1.197285 2.476821,-1.66553 0.445828,-0.231159 0.891656,-0.462318 1.368444,-0.634205 0,0 0.699702,-0.278576 0.699702,-0.278576 0,0 0.72447,-0.219305 0.72447,-0.219305 1.925728,-0.563079 3.956721,-0.782384 5.97533,-0.592715 2.006225,0.201523 4.018642,0.806093 5.758609,1.908543 0.45202,0.243013 0.829735,0.610496 1.23841,0.912781 0.383907,0.337848 0.736854,0.717185 1.089801,1.090596 0.303411,0.4149 0.63159,0.806089 0.897848,1.244699 0.266258,0.43861 0.501556,0.90686 0.681126,1.41659 0.179569,0.50381 0.297218,1.05503 0.321986,1.62404 0.02477,0.57493 -0.05573,1.13801 -0.204337,1.65368 -0.303411,1.03725 -0.786391,1.93225 -1.35606,2.7087 0,0 -0.860695,1.17951 -0.860695,1.17951 -0.309603,0.37934 -0.66255,0.71718 -0.99692,1.07281 0,0 -0.507749,0.52752 -0.507749,0.52752 0,0 -0.569668,0.46232 -0.569668,0.46232 -0.383908,0.30228 -0.749239,0.6342 -1.157914,0.90685 -1.616126,1.12023 -3.418013,1.93225 -5.275629,2.5546 -3.758576,1.10838 -7.764833,1.30398 -11.579138,0.52159 -0.96596,-0.14225 -1.882383,-0.46824 -2.823575,-0.71718 0,0 -1.362252,-0.51567 -1.362252,-0.51567 -0.222914,-0.0889 -0.458212,-0.16596 -0.674934,-0.26672 0,0 -0.656357,-0.32006 -0.656357,-0.32006 -1.777119,-0.79424 -3.362285,-1.93818 -4.823609,-3.12954 -1.467516,-1.21507 -2.730695,-2.6198 -3.900993,-4.08381 -1.120761,-1.49957 -2.117682,-3.07619 -2.947417,-4.72394 -1.640894,-3.307346 -2.736887,-6.839929 -3.28798,-10.431782 -0.582052,-3.591854 -0.656357,-7.242979 -0.284834,-10.846687 0.173378,-1.801854 0.489172,-3.597781 0.928808,-5.364072 0.433444,-1.766291 0.978344,-3.5148 1.702814,-5.198111 0.712086,-1.689238 1.560397,-3.325132 2.56351,-4.883973 1.021689,-1.546986 2.185794,-3.005065 3.498509,-4.332747 1.294139,-1.345464 2.817384,-2.513112 4.427318,-3.502947 1.616126,-0.989834 3.3499,-1.807781 5.164171,-2.382714 1.814272,-0.580861 3.690464,-1.001689 5.61,-1.149868 1.913344,-0.142251 3.851456,-0.05927 5.740032,0.290431 1.90096,0.33192 3.727616,1.025397 5.39947,1.938178 1.69043,0.883146 3.238443,2.12192 4.340629,3.722251 0.5449,0.800166 0.959768,1.718874 1.126953,2.696854 0.185762,0.972053 0.09288,1.973741 -0.160993,2.904304 -0.526325,1.87298 -1.709007,3.467383 -3.164139,4.712085 -1.461324,1.250629 -3.244635,2.12192 -5.108443,2.613874 -1.87,0.491953 -3.820496,0.616424 -5.727648,0.420828 -1.907153,-0.195596 -3.783344,-0.717186 -5.504735,-1.54106 -1.727583,-0.817947 -3.263212,-1.99745 -4.532582,-3.354767 -2.569702,-2.738344 -4.092947,-6.247218 -4.687384,-9.82129 -0.613013,-3.585926 -0.27245,-7.30225 0.823543,-10.751852 1.077417,-3.467383 2.829768,-6.697681 4.928874,-9.667184 2.092913,-2.975429 4.538774,-5.695992 7.18278,-8.226885 5.294205,-5.044006 11.616291,-9.157449 18.631886,-11.69427 3.504701,-1.262483 7.195165,-2.104138 10.947549,-2.347151 3.75238,-0.248941 7.5605,0.130397 11.17665,1.173575 0.27865,0.07705 0.43345,0.361557 0.35295,0.628278 -0.0991,0.272649 -0.39629,0.420828 -0.67493,0.343775 0,0 0,0 0,0 0,0 0,0 0,0 z"
       vector-effect="non-scaling-stroke" />
    <path
       id="path-16007796692784580"
       d="m 112.28048,22.274234 c 0.78639,-0.598642 1.57279,-1.203212 2.28487,-1.861125 0.6997,-0.663841 1.31272,-1.404735 1.57278,-2.281954 0.26626,-0.871291 0.24149,-1.837416 0.21053,-2.791688 0,0 -0.0681,-1.446225 -0.0681,-1.446225 0,0 -0.0124,-0.183741 -0.0124,-0.183741 0,0 -0.006,-0.09483 -0.006,-0.09483 0,-0.04742 0,-0.100761 0.006,-0.136324 0.0186,-0.154106 0.0495,-0.278576 0.0867,-0.403047 0.031,-0.12447 0.0681,-0.24894 0.11146,-0.37341 0,0 0.0743,-0.189669 0.0743,-0.189669 0.0186,-0.04149 0.0248,-0.05927 0.0681,-0.130397 0,0 0.0124,-0.02371 0.0124,-0.02371 0,0 0.0124,-0.01778 0.0124,-0.01778 0.0186,-0.01778 0.0371,-0.04149 0.0619,-0.05927 0.0495,-0.03556 0.11145,-0.0652 0.16718,-0.07705 0.0186,-0.01185 0.21672,-0.02371 0.33437,0.106689 0.0557,0.05927 0.0805,0.118543 0.0929,0.16596 0,0 0.006,0.02371 0.006,0.02371 0,0 0.006,0.03556 0.006,0.03556 0,0 0,0.07113 0,0.07113 0,0 -0.0805,-0.237087 -0.0805,-0.237087 1.59755,1.784073 3.39944,3.396258 5.23229,4.996589 1.82665,1.606258 3.6595,3.242152 5.28801,5.115131 0.24768,0.284504 0.21053,0.711258 -0.0929,0.954272 -0.13623,0.106688 -0.29722,0.160033 -0.45821,0.154106 0,0 -0.0248,0 -0.0248,0 0,0 -3.78335,-0.02371 -3.78335,-0.02371 -1.26317,0 -2.52016,-0.02964 -3.78334,-0.05927 -1.26318,-0.04149 -2.52017,-0.09483 -3.78334,-0.171888 -1.26318,-0.08298 -2.52017,-0.189669 -3.77716,-0.33192 -0.17957,-0.01778 -0.30341,-0.171888 -0.28483,-0.343775 0.0186,-0.148179 0.14242,-0.260795 0.29103,-0.272649 1.26317,-0.106689 2.52635,-0.177815 3.78953,-0.225232 1.26318,-0.04149 2.52636,-0.05927 3.78335,-0.0652 1.26317,0.0059 2.52635,0.01185 3.78334,0.04742 0,0 3.78334,0.08298 3.78334,0.08298 0,0 -0.56966,1.108377 -0.56966,1.108377 -1.47371,-1.843344 -3.18891,-3.532582 -4.9103,-5.239602 -1.72139,-1.707019 -3.49232,-3.402184 -5.04652,-5.287018 0,0 -0.0805,-0.237086 -0.0805,-0.237086 0,0.01185 0,0.01778 0,0.02963 0,0 0.006,0.01186 0.006,0.01186 0,0 0.006,0.01185 0.006,0.01185 0.006,0.04149 0.031,0.100762 0.0867,0.154106 0.11146,0.12447 0.3096,0.100761 0.32199,0.09483 0.0495,-0.0059 0.10526,-0.02964 0.14861,-0.0652 0.0186,-0.01778 0.0371,-0.03556 0.0495,-0.05335 0,0 0.006,-0.0059 0.006,-0.0059 0,0 0,-0.0059 0,-0.0059 0.0124,-0.02371 -0.0124,0.01778 -0.0186,0.02964 0,0 -0.0619,0.148179 -0.0619,0.148179 -0.0434,0.106688 -0.0805,0.213377 -0.11146,0.320066 -0.031,0.106688 -0.0619,0.219304 -0.0743,0.308212 0,0 -0.006,0.04149 -0.006,0.04149 0,0 0,0.08891 0,0.08891 0,0 0.006,0.183742 0.006,0.183742 0,0 0.0433,1.458079 0.0433,1.458079 0.0124,0.972053 0.0186,1.979668 -0.28483,2.969502 -0.30341,1.001689 -0.99692,1.825563 -1.72759,2.513113 -0.73066,0.699403 -1.51086,1.327681 -2.29725,1.944105 -0.13622,0.106689 -0.34056,0.08891 -0.45202,-0.04149 -0.11145,-0.130397 -0.0929,-0.325993 0.0434,-0.432682 0.0124,0.0059 0.0124,0.0059 0.0186,0 0,0 0,0 0,0 z"
       vector-effect="non-scaling-stroke" />
    <path
       id="path-16007796692804582-3"
       d="m 112.83158,17.615493 c -3.48613,-1.01947 -7.16421,-1.39288 -10.80513,-1.167649 -3.640931,0.225232 -7.244706,1.025398 -10.675103,2.252318 -6.866986,2.471622 -13.071422,6.543575 -18.260362,11.5046 -2.588278,2.489404 -4.996986,5.18033 -7.034171,8.096489 -2.043377,2.910231 -3.733808,6.057548 -4.76788,9.400462 -1.052649,3.336986 -1.35606,6.869568 -0.767815,10.295461 0.575861,3.408112 2.030993,6.727317 4.445894,9.275992 1.201258,1.280264 2.613046,2.353079 4.210595,3.105827 1.591358,0.764602 3.343708,1.22692 5.120827,1.39288 3.535662,0.337848 7.26947,-0.557152 9.870132,-2.827251 1.287947,-1.120231 2.309635,-2.560529 2.736887,-4.137151 0.45202,-1.570695 0.123841,-3.212516 -0.835927,-4.569834 -0.947384,-1.35139 -2.334404,-2.465695 -3.900993,-3.259933 -1.541821,-0.823874 -3.219867,-1.446225 -4.97841,-1.730728 -1.752351,-0.308212 -3.548046,-0.367483 -5.325165,-0.219305 -1.783311,0.154106 -3.535662,0.56308 -5.226092,1.120232 -1.696623,0.557152 -3.306556,1.333609 -4.805033,2.270099 -1.498476,0.93649 -2.879304,2.015231 -4.086754,3.295496 -1.219835,1.256556 -2.303444,2.637582 -3.250828,4.101588 -0.928808,1.475861 -1.715198,3.034702 -2.377748,4.64096 -0.668741,1.606258 -1.170298,3.277714 -1.572781,4.966953 -0.396291,1.689238 -0.681126,3.408111 -0.835927,5.13884 -0.321987,3.461456 -0.216722,6.958475 0.371523,10.378441 0.557285,3.419966 1.640894,6.76288 3.201291,9.85093 0.792583,1.54105 1.739967,2.99913 2.786424,4.38016 1.095993,1.33954 2.272483,2.62573 3.62235,3.72225 1.362252,1.0906 2.77404,2.09229 4.371589,2.78576 0,0 0.588245,0.28451 0.588245,0.28451 0.198146,0.0889 0.408675,0.1541 0.613013,0.23115 0,0 1.226027,0.45047 1.226027,0.45047 0.854503,0.20745 1.678046,0.50381 2.551125,0.62235 1.721391,0.36155 3.492318,0.42083 5.244668,0.37341 1.758543,-0.0652 3.479934,-0.40897 5.151788,-0.88315 1.640894,-0.55715 3.213675,-1.27433 4.606887,-2.24046 0.352947,-0.23116 0.656357,-0.52752 0.990728,-0.78238 0,0 0.489172,-0.39712 0.489172,-0.39712 0,0 0.433444,-0.45047 0.433444,-0.45047 0.278642,-0.30821 0.588245,-0.59271 0.848311,-0.91278 0,0 0.730662,-1.00761 0.730662,-1.00761 0.501557,-0.66977 0.860696,-1.38696 1.052649,-2.05672 0.185762,-0.6757 0.160994,-1.28027 -0.0805,-1.95596 -0.117649,-0.33192 -0.284834,-0.66977 -0.48298,-0.99577 -0.204337,-0.32599 -0.464404,-0.62235 -0.687317,-0.94241 -0.272451,-0.27858 -0.538709,-0.56901 -0.835927,-0.8298 -0.328179,-0.231163 -0.60063,-0.515666 -0.959769,-0.699408 -1.356059,-0.85351 -2.984569,-1.35139 -4.656423,-1.511423 -1.678046,-0.154106 -3.399437,0.03556 -5.00937,0.515662 -1.62851,0.486026 -3.07745,1.256556 -4.377781,2.335299 -1.294139,1.07281 -2.396324,2.36493 -3.300364,3.78745 -1.820463,2.85096 -2.848344,6.19387 -3.343708,9.57827 -0.996921,6.82216 0.154801,13.87547 2.83596,20.3005 2.68735,6.43688 6.972251,12.27513 12.377912,16.93979 2.718311,2.31159 5.67192,4.3861 8.897979,6.02199 3.207483,1.66553 6.656457,2.89245 10.210695,3.71632 0,0 0.0062,0 0.0062,0 0.278642,0.0652 0.452019,0.33785 0.383907,0.60457 -0.06811,0.2608 -0.334371,0.42083 -0.606821,0.37341 -7.399503,-1.33953 -14.328409,-4.7595 -20.06225,-9.44195 -5.70288,-4.74172 -10.284999,-10.72814 -13.238607,-17.41989 -2.922649,-6.69176 -4.154868,-14.13626 -3.157947,-21.40295 0.507748,-3.62149 1.572781,-7.25483 3.603774,-10.48513 1.015497,-1.60626 2.260099,-3.11175 3.777152,-4.368308 0.755431,-0.60457 1.578974,-1.197285 2.476821,-1.66553 0.445828,-0.231159 0.891656,-0.462318 1.368444,-0.634205 0,0 0.699702,-0.278576 0.699702,-0.278576 0,0 0.72447,-0.219305 0.72447,-0.219305 1.925728,-0.563079 3.956721,-0.782384 5.97533,-0.592715 2.006225,0.201523 4.018642,0.806093 5.758609,1.908543 0.45202,0.243013 0.829735,0.610496 1.23841,0.912781 0.383907,0.337848 0.736854,0.717185 1.089801,1.090596 0.303411,0.4149 0.63159,0.806089 0.897848,1.244699 0.266258,0.43861 0.501556,0.90686 0.681126,1.41659 0.179569,0.50381 0.297218,1.05503 0.321986,1.62404 0.02477,0.57493 -0.05573,1.13801 -0.204337,1.65368 -0.303411,1.03725 -0.786391,1.93225 -1.35606,2.7087 0,0 -0.860695,1.17951 -0.860695,1.17951 -0.309603,0.37934 -0.66255,0.71718 -0.99692,1.07281 0,0 -0.507749,0.52752 -0.507749,0.52752 0,0 -0.569668,0.46232 -0.569668,0.46232 -0.383908,0.30228 -0.749239,0.6342 -1.157914,0.90685 -1.616126,1.12023 -3.418013,1.93225 -5.275629,2.5546 -3.758576,1.10838 -7.764833,1.30398 -11.579138,0.52159 -0.96596,-0.14225 -1.882383,-0.46824 -2.823575,-0.71718 0,0 -1.362252,-0.51567 -1.362252,-0.51567 -0.222914,-0.0889 -0.458212,-0.16596 -0.674934,-0.26672 0,0 -0.656357,-0.32006 -0.656357,-0.32006 -1.777119,-0.79424 -3.362285,-1.93818 -4.823609,-3.12954 -1.467516,-1.21507 -2.730695,-2.6198 -3.900993,-4.08381 -1.120761,-1.49957 -2.117682,-3.07619 -2.947417,-4.72394 -1.640894,-3.307346 -2.736887,-6.839929 -3.28798,-10.431782 -0.582052,-3.591854 -0.656357,-7.242979 -0.284834,-10.846687 0.173378,-1.801854 0.489172,-3.597781 0.928808,-5.364072 0.433444,-1.766291 0.978344,-3.5148 1.702814,-5.198111 0.712086,-1.689238 1.560397,-3.325132 2.56351,-4.883973 1.021689,-1.546986 2.185794,-3.005065 3.498509,-4.332747 1.294139,-1.345464 2.817384,-2.513112 4.427318,-3.502947 1.616126,-0.989834 3.3499,-1.807781 5.164171,-2.382714 1.814272,-0.580861 3.690464,-1.001689 5.61,-1.149868 1.913344,-0.142251 3.851456,-0.05927 5.740032,0.290431 1.90096,0.33192 3.727616,1.025397 5.39947,1.938178 1.69043,0.883146 3.238443,2.12192 4.340629,3.722251 0.5449,0.800166 0.959768,1.718874 1.126953,2.696854 0.185762,0.972053 0.09288,1.973741 -0.160993,2.904304 -0.526325,1.87298 -1.709007,3.467383 -3.164139,4.712085 -1.461324,1.250629 -3.244635,2.12192 -5.108443,2.613874 -1.87,0.491953 -3.820496,0.616424 -5.727648,0.420828 -1.907153,-0.195596 -3.783344,-0.717186 -5.504735,-1.54106 -1.727583,-0.817947 -3.263212,-1.99745 -4.532582,-3.354767 -2.569702,-2.738344 -4.092947,-6.247218 -4.687384,-9.82129 -0.613013,-3.585926 -0.27245,-7.30225 0.823543,-10.751852 1.077417,-3.467383 2.829768,-6.697681 4.928874,-9.667184 2.092913,-2.975429 4.538774,-5.695992 7.18278,-8.226885 5.294205,-5.044006 11.616291,-9.157449 18.631886,-11.69427 3.504701,-1.262483 7.195165,-2.104138 10.947549,-2.347151 3.75238,-0.248941 7.5605,0.130397 11.17665,1.173575 0.27865,0.07705 0.43345,0.361557 0.35295,0.628278 -0.0991,0.272649 -0.39629,0.420828 -0.67493,0.343775 0,0 0,0 0,0 0,0 0,0 0,0 z"
       vector-effect="non-scaling-stroke" />
  </defs>
  <sodipodi:namedview
     id="base"
     pagecolor="#ffffff"
     bordercolor="#666666"
     borderopacity="1.0"
     inkscape:pageopacity="0.0"
     inkscape:pageshadow="2"
     inkscape:zoom="0.35"
     inkscape:cx="8.8315126"
     inkscape:cy="490.22177"
     inkscape:document-units="mm"
     inkscape:current-layer="g324"
     inkscape:document-rotation="0"
     showgrid="false"
     inkscape:window-width="1680"
     inkscape:window-height="1013"
     inkscape:window-x="0"
     inkscape:window-y="0"
     inkscape:window-maximized="1" />
  <metadata
     id="metadata5">
    <rdf:RDF>
      <cc:Work
         rdf:about="">
        <dc:format>image/svg+xml</dc:format>
        <dc:type
           rdf:resource="http://purl.org/dc/dcmitype/StillImage" />
        <dc:title></dc:title>
      </cc:Work>
    </rdf:RDF>
  </metadata>
  <g
     inkscape:label="Calque 1"
     inkscape:groupmode="layer"
     id="layer1"
     transform="translate(-57.06396,-37.67275)">
    <g
       style="overflow:visible"
       id="g155"
       transform="matrix(0.26458333,0,0,0.26458333,507.59617,403.1621)">
      <g
         id="g138">
        <defs
           id="defs132">
          <path
             id="path149"
             d="m 112.83158,17.615493 c -3.48613,-1.01947 -7.16421,-1.39288 -10.80513,-1.167649 -3.640931,0.225232 -7.244706,1.025398 -10.675103,2.252318 -6.866986,2.471622 -13.071422,6.543575 -18.260362,11.5046 -2.588278,2.489404 -4.996986,5.18033 -7.034171,8.096489 -2.043377,2.910231 -3.733808,6.057548 -4.76788,9.400462 -1.052649,3.336986 -1.35606,6.869568 -0.767815,10.295461 0.575861,3.408112 2.030993,6.727317 4.445894,9.275992 1.201258,1.280264 2.613046,2.353079 4.210595,3.105827 1.591358,0.764602 3.343708,1.22692 5.120827,1.39288 3.535662,0.337848 7.26947,-0.557152 9.870132,-2.827251 1.287947,-1.120231 2.309635,-2.560529 2.736887,-4.137151 0.45202,-1.570695 0.123841,-3.212516 -0.835927,-4.569834 -0.947384,-1.35139 -2.334404,-2.465695 -3.900993,-3.259933 -1.541821,-0.823874 -3.219867,-1.446225 -4.97841,-1.730728 -1.752351,-0.308212 -3.548046,-0.367483 -5.325165,-0.219305 -1.783311,0.154106 -3.535662,0.56308 -5.226092,1.120232 -1.696623,0.557152 -3.306556,1.333609 -4.805033,2.270099 -1.498476,0.93649 -2.879304,2.015231 -4.086754,3.295496 -1.219835,1.256556 -2.303444,2.637582 -3.250828,4.101588 -0.928808,1.475861 -1.715198,3.034702 -2.377748,4.64096 -0.668741,1.606258 -1.170298,3.277714 -1.572781,4.966953 -0.396291,1.689238 -0.681126,3.408111 -0.835927,5.13884 -0.321987,3.461456 -0.216722,6.958475 0.371523,10.378441 0.557285,3.419966 1.640894,6.76288 3.201291,9.85093 0.792583,1.54105 1.739967,2.99913 2.786424,4.38016 1.095993,1.33954 2.272483,2.62573 3.62235,3.72225 1.362252,1.0906 2.77404,2.09229 4.371589,2.78576 0,0 0.588245,0.28451 0.588245,0.28451 0.198146,0.0889 0.408675,0.1541 0.613013,0.23115 0,0 1.226027,0.45047 1.226027,0.45047 0.854503,0.20745 1.678046,0.50381 2.551125,0.62235 1.721391,0.36155 3.492318,0.42083 5.244668,0.37341 1.758543,-0.0652 3.479934,-0.40897 5.151788,-0.88315 1.640894,-0.55715 3.213675,-1.27433 4.606887,-2.24046 0.352947,-0.23116 0.656357,-0.52752 0.990728,-0.78238 0,0 0.489172,-0.39712 0.489172,-0.39712 0,0 0.433444,-0.45047 0.433444,-0.45047 0.278642,-0.30821 0.588245,-0.59271 0.848311,-0.91278 0,0 0.730662,-1.00761 0.730662,-1.00761 0.501557,-0.66977 0.860696,-1.38696 1.052649,-2.05672 0.185762,-0.6757 0.160994,-1.28027 -0.0805,-1.95596 -0.117649,-0.33192 -0.284834,-0.66977 -0.48298,-0.99577 -0.204337,-0.32599 -0.464404,-0.62235 -0.687317,-0.94241 -0.272451,-0.27858 -0.538709,-0.56901 -0.835927,-0.8298 -0.328179,-0.231163 -0.60063,-0.515666 -0.959769,-0.699408 -1.356059,-0.85351 -2.984569,-1.35139 -4.656423,-1.511423 -1.678046,-0.154106 -3.399437,0.03556 -5.00937,0.515662 -1.62851,0.486026 -3.07745,1.256556 -4.377781,2.335299 -1.294139,1.07281 -2.396324,2.36493 -3.300364,3.78745 -1.820463,2.85096 -2.848344,6.19387 -3.343708,9.57827 -0.996921,6.82216 0.154801,13.87547 2.83596,20.3005 2.68735,6.43688 6.972251,12.27513 12.377912,16.93979 2.718311,2.31159 5.67192,4.3861 8.897979,6.02199 3.207483,1.66553 6.656457,2.89245 10.210695,3.71632 0,0 0.0062,0 0.0062,0 0.278642,0.0652 0.452019,0.33785 0.383907,0.60457 -0.06811,0.2608 -0.334371,0.42083 -0.606821,0.37341 -7.399503,-1.33953 -14.328409,-4.7595 -20.06225,-9.44195 -5.70288,-4.74172 -10.284999,-10.72814 -13.238607,-17.41989 -2.922649,-6.69176 -4.154868,-14.13626 -3.157947,-21.40295 0.507748,-3.62149 1.572781,-7.25483 3.603774,-10.48513 1.015497,-1.60626 2.260099,-3.11175 3.777152,-4.368308 0.755431,-0.60457 1.578974,-1.197285 2.476821,-1.66553 0.445828,-0.231159 0.891656,-0.462318 1.368444,-0.634205 0,0 0.699702,-0.278576 0.699702,-0.278576 0,0 0.72447,-0.219305 0.72447,-0.219305 1.925728,-0.563079 3.956721,-0.782384 5.97533,-0.592715 2.006225,0.201523 4.018642,0.806093 5.758609,1.908543 0.45202,0.243013 0.829735,0.610496 1.23841,0.912781 0.383907,0.337848 0.736854,0.717185 1.089801,1.090596 0.303411,0.4149 0.63159,0.806089 0.897848,1.244699 0.266258,0.43861 0.501556,0.90686 0.681126,1.41659 0.179569,0.50381 0.297218,1.05503 0.321986,1.62404 0.02477,0.57493 -0.05573,1.13801 -0.204337,1.65368 -0.303411,1.03725 -0.786391,1.93225 -1.35606,2.7087 0,0 -0.860695,1.17951 -0.860695,1.17951 -0.309603,0.37934 -0.66255,0.71718 -0.99692,1.07281 0,0 -0.507749,0.52752 -0.507749,0.52752 0,0 -0.569668,0.46232 -0.569668,0.46232 -0.383908,0.30228 -0.749239,0.6342 -1.157914,0.90685 -1.616126,1.12023 -3.418013,1.93225 -5.275629,2.5546 -3.758576,1.10838 -7.764833,1.30398 -11.579138,0.52159 -0.96596,-0.14225 -1.882383,-0.46824 -2.823575,-0.71718 0,0 -1.362252,-0.51567 -1.362252,-0.51567 -0.222914,-0.0889 -0.458212,-0.16596 -0.674934,-0.26672 0,0 -0.656357,-0.32006 -0.656357,-0.32006 -1.777119,-0.79424 -3.362285,-1.93818 -4.823609,-3.12954 -1.467516,-1.21507 -2.730695,-2.6198 -3.900993,-4.08381 -1.120761,-1.49957 -2.117682,-3.07619 -2.947417,-4.72394 -1.640894,-3.307346 -2.736887,-6.839929 -3.28798,-10.431782 -0.582052,-3.591854 -0.656357,-7.242979 -0.284834,-10.846687 0.173378,-1.801854 0.489172,-3.597781 0.928808,-5.364072 0.433444,-1.766291 0.978344,-3.5148 1.702814,-5.198111 0.712086,-1.689238 1.560397,-3.325132 2.56351,-4.883973 1.021689,-1.546986 2.185794,-3.005065 3.498509,-4.332747 1.294139,-1.345464 2.817384,-2.513112 4.427318,-3.502947 1.616126,-0.989834 3.3499,-1.807781 5.164171,-2.382714 1.814272,-0.580861 3.690464,-1.001689 5.61,-1.149868 1.913344,-0.142251 3.851456,-0.05927 5.740032,0.290431 1.90096,0.33192 3.727616,1.025397 5.39947,1.938178 1.69043,0.883146 3.238443,2.12192 4.340629,3.722251 0.5449,0.800166 0.959768,1.718874 1.126953,2.696854 0.185762,0.972053 0.09288,1.973741 -0.160993,2.904304 -0.526325,1.87298 -1.709007,3.467383 -3.164139,4.712085 -1.461324,1.250629 -3.244635,2.12192 -5.108443,2.613874 -1.87,0.491953 -3.820496,0.616424 -5.727648,0.420828 -1.907153,-0.195596 -3.783344,-0.717186 -5.504735,-1.54106 -1.727583,-0.817947 -3.263212,-1.99745 -4.532582,-3.354767 -2.569702,-2.738344 -4.092947,-6.247218 -4.687384,-9.82129 -0.613013,-3.585926 -0.27245,-7.30225 0.823543,-10.751852 1.077417,-3.467383 2.829768,-6.697681 4.928874,-9.667184 2.092913,-2.975429 4.538774,-5.695992 7.18278,-8.226885 5.294205,-5.044006 11.616291,-9.157449 18.631886,-11.69427 3.504701,-1.262483 7.195165,-2.104138 10.947544,-2.347151 3.75238,-0.248941 7.5605,0.130397 11.17665,1.173575 0.27865,0.07705 0.43345,0.361557 0.35295,0.628278 -0.0991,0.272649 -0.39629,0.420828 -0.67493,0.343775 0,0 0,0 0,0 0,0 0,0 0,0 z"
             vector-effect="non-scaling-stroke" />
        </defs>
        <g
           transform="translate(-47.618081,-15.396161)"
           id="g136">
          <path
             style="fill:#dadada;stroke-width:0px;stroke-linecap:butt;stroke-linejoin:miter"
             d="m 112.83158,17.615493 c -3.48613,-1.01947 -7.16421,-1.39288 -10.80513,-1.167649 -3.640931,0.225232 -7.244706,1.025398 -10.675103,2.252318 -6.866986,2.471622 -13.071422,6.543575 -18.260362,11.5046 -2.588278,2.489404 -4.996986,5.18033 -7.034171,8.096489 -2.043377,2.910231 -3.733808,6.057548 -4.76788,9.400462 -1.052649,3.336986 -1.35606,6.869568 -0.767815,10.295461 0.575861,3.408112 2.030993,6.727317 4.445894,9.275992 1.201258,1.280264 2.613046,2.353079 4.210595,3.105827 1.591358,0.764602 3.343708,1.22692 5.120827,1.39288 3.535662,0.337848 7.26947,-0.557152 9.870132,-2.827251 1.287947,-1.120231 2.309635,-2.560529 2.736887,-4.137151 0.45202,-1.570695 0.123841,-3.212516 -0.835927,-4.569834 -0.947384,-1.35139 -2.334404,-2.465695 -3.900993,-3.259933 -1.541821,-0.823874 -3.219867,-1.446225 -4.97841,-1.730728 -1.752351,-0.308212 -3.548046,-0.367483 -5.325165,-0.219305 -1.783311,0.154106 -3.535662,0.56308 -5.226092,1.120232 -1.696623,0.557152 -3.306556,1.333609 -4.805033,2.270099 -1.498476,0.93649 -2.879304,2.015231 -4.086754,3.295496 -1.219835,1.256556 -2.303444,2.637582 -3.250828,4.101588 -0.928808,1.475861 -1.715198,3.034702 -2.377748,4.64096 -0.668741,1.606258 -1.170298,3.277714 -1.572781,4.966953 -0.396291,1.689238 -0.681126,3.408111 -0.835927,5.13884 -0.321987,3.461456 -0.216722,6.958475 0.371523,10.378441 0.557285,3.419966 1.640894,6.76288 3.201291,9.85093 0.792583,1.54105 1.739967,2.99913 2.786424,4.38016 1.095993,1.33954 2.272483,2.62573 3.62235,3.72225 1.362252,1.0906 2.77404,2.09229 4.371589,2.78576 0,0 0.588245,0.28451 0.588245,0.28451 0.198146,0.0889 0.408675,0.1541 0.613013,0.23115 0,0 1.226027,0.45047 1.226027,0.45047 0.854503,0.20745 1.678046,0.50381 2.551125,0.62235 1.721391,0.36155 3.492318,0.42083 5.244668,0.37341 1.758543,-0.0652 3.479934,-0.40897 5.151788,-0.88315 1.640894,-0.55715 3.213675,-1.27433 4.606887,-2.24046 0.352947,-0.23116 0.656357,-0.52752 0.990728,-0.78238 0,0 0.489172,-0.39712 0.489172,-0.39712 0,0 0.433444,-0.45047 0.433444,-0.45047 0.278642,-0.30821 0.588245,-0.59271 0.848311,-0.91278 0,0 0.730662,-1.00761 0.730662,-1.00761 0.501557,-0.66977 0.860696,-1.38696 1.052649,-2.05672 0.185762,-0.6757 0.160994,-1.28027 -0.0805,-1.95596 -0.117649,-0.33192 -0.284834,-0.66977 -0.48298,-0.99577 -0.204337,-0.32599 -0.464404,-0.62235 -0.687317,-0.94241 -0.272451,-0.27858 -0.538709,-0.56901 -0.835927,-0.8298 -0.328179,-0.231163 -0.60063,-0.515666 -0.959769,-0.699408 -1.356059,-0.85351 -2.984569,-1.35139 -4.656423,-1.511423 -1.678046,-0.154106 -3.399437,0.03556 -5.00937,0.515662 -1.62851,0.486026 -3.07745,1.256556 -4.377781,2.335299 -1.294139,1.07281 -2.396324,2.36493 -3.300364,3.78745 -1.820463,2.85096 -2.848344,6.19387 -3.343708,9.57827 -0.996921,6.82216 0.154801,13.87547 2.83596,20.3005 2.68735,6.43688 6.972251,12.27513 12.377912,16.93979 2.718311,2.31159 5.67192,4.3861 8.897979,6.02199 3.207483,1.66553 6.656457,2.89245 10.210695,3.71632 0,0 0.0062,0 0.0062,0 0.278642,0.0652 0.452019,0.33785 0.383907,0.60457 -0.06811,0.2608 -0.334371,0.42083 -0.606821,0.37341 -7.399503,-1.33953 -14.328409,-4.7595 -20.06225,-9.44195 -5.70288,-4.74172 -10.284999,-10.72814 -13.238607,-17.41989 -2.922649,-6.69176 -4.154868,-14.13626 -3.157947,-21.40295 0.507748,-3.62149 1.572781,-7.25483 3.603774,-10.48513 1.015497,-1.60626 2.260099,-3.11175 3.777152,-4.368308 0.755431,-0.60457 1.578974,-1.197285 2.476821,-1.66553 0.445828,-0.231159 0.891656,-0.462318 1.368444,-0.634205 0,0 0.699702,-0.278576 0.699702,-0.278576 0,0 0.72447,-0.219305 0.72447,-0.219305 1.925728,-0.563079 3.956721,-0.782384 5.97533,-0.592715 2.006225,0.201523 4.018642,0.806093 5.758609,1.908543 0.45202,0.243013 0.829735,0.610496 1.23841,0.912781 0.383907,0.337848 0.736854,0.717185 1.089801,1.090596 0.303411,0.4149 0.63159,0.806089 0.897848,1.244699 0.266258,0.43861 0.501556,0.90686 0.681126,1.41659 0.179569,0.50381 0.297218,1.05503 0.321986,1.62404 0.02477,0.57493 -0.05573,1.13801 -0.204337,1.65368 -0.303411,1.03725 -0.786391,1.93225 -1.35606,2.7087 0,0 -0.860695,1.17951 -0.860695,1.17951 -0.309603,0.37934 -0.66255,0.71718 -0.99692,1.07281 0,0 -0.507749,0.52752 -0.507749,0.52752 0,0 -0.569668,0.46232 -0.569668,0.46232 -0.383908,0.30228 -0.749239,0.6342 -1.157914,0.90685 -1.616126,1.12023 -3.418013,1.93225 -5.275629,2.5546 -3.758576,1.10838 -7.764833,1.30398 -11.579138,0.52159 -0.96596,-0.14225 -1.882383,-0.46824 -2.823575,-0.71718 0,0 -1.362252,-0.51567 -1.362252,-0.51567 -0.222914,-0.0889 -0.458212,-0.16596 -0.674934,-0.26672 0,0 -0.656357,-0.32006 -0.656357,-0.32006 -1.777119,-0.79424 -3.362285,-1.93818 -4.823609,-3.12954 -1.467516,-1.21507 -2.730695,-2.6198 -3.900993,-4.08381 -1.120761,-1.49957 -2.117682,-3.07619 -2.947417,-4.72394 -1.640894,-3.307346 -2.736887,-6.839929 -3.28798,-10.431782 -0.582052,-3.591854 -0.656357,-7.242979 -0.284834,-10.846687 0.173378,-1.801854 0.489172,-3.597781 0.928808,-5.364072 0.433444,-1.766291 0.978344,-3.5148 1.702814,-5.198111 0.712086,-1.689238 1.560397,-3.325132 2.56351,-4.883973 1.021689,-1.546986 2.185794,-3.005065 3.498509,-4.332747 1.294139,-1.345464 2.817384,-2.513112 4.427318,-3.502947 1.616126,-0.989834 3.3499,-1.807781 5.164171,-2.382714 1.814272,-0.580861 3.690464,-1.001689 5.61,-1.149868 1.913344,-0.142251 3.851456,-0.05927 5.740032,0.290431 1.90096,0.33192 3.727616,1.025397 5.39947,1.938178 1.69043,0.883146 3.238443,2.12192 4.340629,3.722251 0.5449,0.800166 0.959768,1.718874 1.126953,2.696854 0.185762,0.972053 0.09288,1.973741 -0.160993,2.904304 -0.526325,1.87298 -1.709007,3.467383 -3.164139,4.712085 -1.461324,1.250629 -3.244635,2.12192 -5.108443,2.613874 -1.87,0.491953 -3.820496,0.616424 -5.727648,0.420828 -1.907153,-0.195596 -3.783344,-0.717186 -5.504735,-1.54106 -1.727583,-0.817947 -3.263212,-1.99745 -4.532582,-3.354767 -2.569702,-2.738344 -4.092947,-6.247218 -4.687384,-9.82129 -0.613013,-3.585926 -0.27245,-7.30225 0.823543,-10.751852 1.077417,-3.467383 2.829768,-6.697681 4.928874,-9.667184 2.092913,-2.975429 4.538774,-5.695992 7.18278,-8.226885 5.294205,-5.044006 11.616291,-9.157449 18.631886,-11.69427 3.504701,-1.262483 7.195165,-2.104138 10.947544,-2.347151 3.75238,-0.248941 7.5605,0.130397 11.17665,1.173575 0.27865,0.07705 0.43345,0.361557 0.35295,0.628278 -0.0991,0.272649 -0.39629,0.420828 -0.67493,0.343775 0,0 0,0 0,0 0,0 0,0 0,0 z"
             vector-effect="non-scaling-stroke"
             id="path134" />
        </g>
      </g>
    </g>
    <g
       id="g324"
       transform="rotate(180,116.73833,89.906109)">
      <g
         id="g338"
         transform="matrix(0.41165428,-0.37897782,0.37897782,0.41165428,60.975816,120.09044)">
        <g
           style="overflow:visible"
           id="g181"
           transform="matrix(1.0205498,0,0,1.0205498,139.40842,16.047503)">
          <g
             id="g164">
            <defs
               id="defs158">
              <path
                 id="path175"
                 d="m 112.28048,22.274234 c 0.78639,-0.598642 1.57279,-1.203212 2.28487,-1.861125 0.6997,-0.663841 1.31272,-1.404735 1.57278,-2.281954 0.26626,-0.871291 0.24149,-1.837416 0.21053,-2.791688 0,0 -0.0681,-1.446225 -0.0681,-1.446225 0,0 -0.0124,-0.183741 -0.0124,-0.183741 0,0 -0.006,-0.09483 -0.006,-0.09483 0,-0.04742 0,-0.100761 0.006,-0.136324 0.0186,-0.154106 0.0495,-0.278576 0.0867,-0.403047 0.031,-0.12447 0.0681,-0.24894 0.11146,-0.37341 0,0 0.0743,-0.189669 0.0743,-0.189669 0.0186,-0.04149 0.0248,-0.05927 0.0681,-0.130397 0,0 0.0124,-0.02371 0.0124,-0.02371 0,0 0.0124,-0.01778 0.0124,-0.01778 0.0186,-0.01778 0.0371,-0.04149 0.0619,-0.05927 0.0495,-0.03556 0.11145,-0.0652 0.16718,-0.07705 0.0186,-0.01185 0.21672,-0.02371 0.33437,0.106689 0.0557,0.05927 0.0805,0.118543 0.0929,0.16596 0,0 0.006,0.02371 0.006,0.02371 0,0 0.006,0.03556 0.006,0.03556 0,0 0,0.07113 0,0.07113 0,0 -0.0805,-0.237087 -0.0805,-0.237087 1.59755,1.784073 3.39944,3.396258 5.23229,4.996589 1.82665,1.606258 3.6595,3.242152 5.28801,5.115131 0.24768,0.284504 0.21053,0.711258 -0.0929,0.954272 -0.13623,0.106688 -0.29722,0.160033 -0.45821,0.154106 0,0 -0.0248,0 -0.0248,0 0,0 -3.78335,-0.02371 -3.78335,-0.02371 -1.26317,0 -2.52016,-0.02964 -3.78334,-0.05927 -1.26318,-0.04149 -2.52017,-0.09483 -3.78334,-0.171888 -1.26318,-0.08298 -2.52017,-0.189669 -3.77716,-0.33192 -0.17957,-0.01778 -0.30341,-0.171888 -0.28483,-0.343775 0.0186,-0.148179 0.14242,-0.260795 0.29103,-0.272649 1.26317,-0.106689 2.52635,-0.177815 3.78953,-0.225232 1.26318,-0.04149 2.52636,-0.05927 3.78335,-0.0652 1.26317,0.0059 2.52635,0.01185 3.78334,0.04742 0,0 3.78334,0.08298 3.78334,0.08298 0,0 -0.56966,1.108377 -0.56966,1.108377 -1.47371,-1.843344 -3.18891,-3.532582 -4.9103,-5.239602 -1.72139,-1.707019 -3.49232,-3.402184 -5.04652,-5.287018 0,0 -0.0805,-0.237086 -0.0805,-0.237086 0,0.01185 0,0.01778 0,0.02963 0,0 0.006,0.01186 0.006,0.01186 0,0 0.006,0.01185 0.006,0.01185 0.006,0.04149 0.031,0.100762 0.0867,0.154106 0.11146,0.12447 0.3096,0.100761 0.32199,0.09483 0.0495,-0.0059 0.10526,-0.02964 0.14861,-0.0652 0.0186,-0.01778 0.0371,-0.03556 0.0495,-0.05335 0,0 0.006,-0.0059 0.006,-0.0059 0,0 0,-0.0059 0,-0.0059 0.0124,-0.02371 -0.0124,0.01778 -0.0186,0.02964 0,0 -0.0619,0.148179 -0.0619,0.148179 -0.0434,0.106688 -0.0805,0.213377 -0.11146,0.320066 -0.031,0.106688 -0.0619,0.219304 -0.0743,0.308212 0,0 -0.006,0.04149 -0.006,0.04149 0,0 0,0.08891 0,0.08891 0,0 0.006,0.183742 0.006,0.183742 0,0 0.0433,1.458079 0.0433,1.458079 0.0124,0.972053 0.0186,1.979668 -0.28483,2.969502 -0.30341,1.001689 -0.99692,1.825563 -1.72759,2.513113 -0.73066,0.699403 -1.51086,1.327681 -2.29725,1.944105 -0.13622,0.106689 -0.34056,0.08891 -0.45202,-0.04149 -0.11145,-0.130397 -0.0929,-0.325993 0.0434,-0.432682 0.0124,0.0059 0.0124,0.0059 0.0186,0 0,0 0,0 0,0 z"
                 vector-effect="non-scaling-stroke" />
            </defs>
            <g
               transform="translate(-111.75232,-12.19716)"
               id="g162">
              <path
                 style="fill:#dadada;stroke-width:0px;stroke-linecap:butt;stroke-linejoin:miter"
                 d="m 112.28048,22.274234 c 0.78639,-0.598642 1.57279,-1.203212 2.28487,-1.861125 0.6997,-0.663841 1.31272,-1.404735 1.57278,-2.281954 0.26626,-0.871291 0.24149,-1.837416 0.21053,-2.791688 0,0 -0.0681,-1.446225 -0.0681,-1.446225 0,0 -0.0124,-0.183741 -0.0124,-0.183741 0,0 -0.006,-0.09483 -0.006,-0.09483 0,-0.04742 0,-0.100761 0.006,-0.136324 0.0186,-0.154106 0.0495,-0.278576 0.0867,-0.403047 0.031,-0.12447 0.0681,-0.24894 0.11146,-0.37341 0,0 0.0743,-0.189669 0.0743,-0.189669 0.0186,-0.04149 0.0248,-0.05927 0.0681,-0.130397 0,0 0.0124,-0.02371 0.0124,-0.02371 0,0 0.0124,-0.01778 0.0124,-0.01778 0.0186,-0.01778 0.0371,-0.04149 0.0619,-0.05927 0.0495,-0.03556 0.11145,-0.0652 0.16718,-0.07705 0.0186,-0.01185 0.21672,-0.02371 0.33437,0.106689 0.0557,0.05927 0.0805,0.118543 0.0929,0.16596 0,0 0.006,0.02371 0.006,0.02371 0,0 0.006,0.03556 0.006,0.03556 0,0 0,0.07113 0,0.07113 0,0 -0.0805,-0.237087 -0.0805,-0.237087 1.59755,1.784073 3.39944,3.396258 5.23229,4.996589 1.82665,1.606258 3.6595,3.242152 5.28801,5.115131 0.24768,0.284504 0.21053,0.711258 -0.0929,0.954272 -0.13623,0.106688 -0.29722,0.160033 -0.45821,0.154106 0,0 -0.0248,0 -0.0248,0 0,0 -3.78335,-0.02371 -3.78335,-0.02371 -1.26317,0 -2.52016,-0.02964 -3.78334,-0.05927 -1.26318,-0.04149 -2.52017,-0.09483 -3.78334,-0.171888 -1.26318,-0.08298 -2.52017,-0.189669 -3.77716,-0.33192 -0.17957,-0.01778 -0.30341,-0.171888 -0.28483,-0.343775 0.0186,-0.148179 0.14242,-0.260795 0.29103,-0.272649 1.26317,-0.106689 2.52635,-0.177815 3.78953,-0.225232 1.26318,-0.04149 2.52636,-0.05927 3.78335,-0.0652 1.26317,0.0059 2.52635,0.01185 3.78334,0.04742 0,0 3.78334,0.08298 3.78334,0.08298 0,0 -0.56966,1.108377 -0.56966,1.108377 -1.47371,-1.843344 -3.18891,-3.532582 -4.9103,-5.239602 -1.72139,-1.707019 -3.49232,-3.402184 -5.04652,-5.287018 0,0 -0.0805,-0.237086 -0.0805,-0.237086 0,0.01185 0,0.01778 0,0.02963 0,0 0.006,0.01186 0.006,0.01186 0,0 0.006,0.01185 0.006,0.01185 0.006,0.04149 0.031,0.100762 0.0867,0.154106 0.11146,0.12447 0.3096,0.100761 0.32199,0.09483 0.0495,-0.0059 0.10526,-0.02964 0.14861,-0.0652 0.0186,-0.01778 0.0371,-0.03556 0.0495,-0.05335 0,0 0.006,-0.0059 0.006,-0.0059 0,0 0,-0.0059 0,-0.0059 0.0124,-0.02371 -0.0124,0.01778 -0.0186,0.02964 0,0 -0.0619,0.148179 -0.0619,0.148179 -0.0434,0.106688 -0.0805,0.213377 -0.11146,0.320066 -0.031,0.106688 -0.0619,0.219304 -0.0743,0.308212 0,0 -0.006,0.04149 -0.006,0.04149 0,0 0,0.08891 0,0.08891 0,0 0.006,0.183742 0.006,0.183742 0,0 0.0433,1.458079 0.0433,1.458079 0.0124,0.972053 0.0186,1.979668 -0.28483,2.969502 -0.30341,1.001689 -0.99692,1.825563 -1.72759,2.513113 -0.73066,0.699403 -1.51086,1.327681 -2.29725,1.944105 -0.13622,0.106689 -0.34056,0.08891 -0.45202,-0.04149 -0.11145,-0.130397 -0.0929,-0.325993 0.0434,-0.432682 0.0124,0.0059 0.0124,0.0059 0.0186,0 0,0 0,0 0,0 z"
                 vector-effect="non-scaling-stroke"
                 id="path160" />
            </g>
          </g>
        </g>
        <g
           style="overflow:visible"
           id="g310"
           transform="matrix(0.98201249,0,0,0.98201249,77.583858,19.643371)">
          <g
             id="g293"
             transform="rotate(-1.4111993,32.954842,73.380603)">
            <defs
               id="defs287">
              <path
                 id="path304"
                 d="m 112.83158,17.615493 c -3.48613,-1.01947 -7.16421,-1.39288 -10.80513,-1.167649 -3.640931,0.225232 -7.244706,1.025398 -10.675103,2.252318 -6.866986,2.471622 -13.071422,6.543575 -18.260362,11.5046 -2.588278,2.489404 -4.996986,5.18033 -7.034171,8.096489 -2.043377,2.910231 -3.733808,6.057548 -4.76788,9.400462 -1.052649,3.336986 -1.35606,6.869568 -0.767815,10.295461 0.575861,3.408112 2.030993,6.727317 4.445894,9.275992 1.201258,1.280264 2.613046,2.353079 4.210595,3.105827 1.591358,0.764602 3.343708,1.22692 5.120827,1.39288 3.535662,0.337848 7.26947,-0.557152 9.870132,-2.827251 1.287947,-1.120231 2.309635,-2.560529 2.736887,-4.137151 0.45202,-1.570695 0.123841,-3.212516 -0.835927,-4.569834 -0.947384,-1.35139 -2.334404,-2.465695 -3.900993,-3.259933 -1.541821,-0.823874 -3.219867,-1.446225 -4.97841,-1.730728 -1.752351,-0.308212 -3.548046,-0.367483 -5.325165,-0.219305 -1.783311,0.154106 -3.535662,0.56308 -5.226092,1.120232 -1.696623,0.557152 -3.306556,1.333609 -4.805033,2.270099 -1.498476,0.93649 -2.879304,2.015231 -4.086754,3.295496 -1.219835,1.256556 -2.303444,2.637582 -3.250828,4.101588 -0.928808,1.475861 -1.715198,3.034702 -2.377748,4.64096 -0.668741,1.606258 -1.170298,3.277714 -1.572781,4.966953 -0.396291,1.689238 -0.681126,3.408111 -0.835927,5.13884 -0.321987,3.461456 -0.216722,6.958475 0.371523,10.378441 0.557285,3.419966 1.640894,6.76288 3.201291,9.85093 0.792583,1.54105 1.739967,2.99913 2.786424,4.38016 1.095993,1.33954 2.272483,2.62573 3.62235,3.72225 1.362252,1.0906 2.77404,2.09229 4.371589,2.78576 0,0 0.588245,0.28451 0.588245,0.28451 0.198146,0.0889 0.408675,0.1541 0.613013,0.23115 0,0 1.226027,0.45047 1.226027,0.45047 0.854503,0.20745 1.678046,0.50381 2.551125,0.62235 1.721391,0.36155 3.492318,0.42083 5.244668,0.37341 1.758543,-0.0652 3.479934,-0.40897 5.151788,-0.88315 1.640894,-0.55715 3.213675,-1.27433 4.606887,-2.24046 0.352947,-0.23116 0.656357,-0.52752 0.990728,-0.78238 0,0 0.489172,-0.39712 0.489172,-0.39712 0,0 0.433444,-0.45047 0.433444,-0.45047 0.278642,-0.30821 0.588245,-0.59271 0.848311,-0.91278 0,0 0.730662,-1.00761 0.730662,-1.00761 0.501557,-0.66977 0.860696,-1.38696 1.052649,-2.05672 0.185762,-0.6757 0.160994,-1.28027 -0.0805,-1.95596 -0.117649,-0.33192 -0.284834,-0.66977 -0.48298,-0.99577 -0.204337,-0.32599 -0.464404,-0.62235 -0.687317,-0.94241 -0.272451,-0.27858 -0.538709,-0.56901 -0.835927,-0.8298 -0.328179,-0.231163 -0.60063,-0.515666 -0.959769,-0.699408 -1.356059,-0.85351 -2.984569,-1.35139 -4.656423,-1.511423 -1.678046,-0.154106 -3.399437,0.03556 -5.00937,0.515662 -1.62851,0.486026 -3.07745,1.256556 -4.377781,2.335299 -1.294139,1.07281 -2.396324,2.36493 -3.300364,3.78745 -1.820463,2.85096 -2.848344,6.19387 -3.343708,9.57827 -0.996921,6.82216 0.154801,13.87547 2.83596,20.3005 2.68735,6.43688 6.972251,12.27513 12.377912,16.93979 2.718311,2.31159 5.67192,4.3861 8.897979,6.02199 3.207483,1.66553 6.656457,2.89245 10.210695,3.71632 0,0 0.0062,0 0.0062,0 0.278642,0.0652 0.452019,0.33785 0.383907,0.60457 -0.06811,0.2608 -0.334371,0.42083 -0.606821,0.37341 -7.399503,-1.33953 -14.328409,-4.7595 -20.06225,-9.44195 -5.70288,-4.74172 -10.284999,-10.72814 -13.238607,-17.41989 -2.922649,-6.69176 -4.154868,-14.13626 -3.157947,-21.40295 0.507748,-3.62149 1.572781,-7.25483 3.603774,-10.48513 1.015497,-1.60626 2.260099,-3.11175 3.777152,-4.368308 0.755431,-0.60457 1.578974,-1.197285 2.476821,-1.66553 0.445828,-0.231159 0.891656,-0.462318 1.368444,-0.634205 0,0 0.699702,-0.278576 0.699702,-0.278576 0,0 0.72447,-0.219305 0.72447,-0.219305 1.925728,-0.563079 3.956721,-0.782384 5.97533,-0.592715 2.006225,0.201523 4.018642,0.806093 5.758609,1.908543 0.45202,0.243013 0.829735,0.610496 1.23841,0.912781 0.383907,0.337848 0.736854,0.717185 1.089801,1.090596 0.303411,0.4149 0.63159,0.806089 0.897848,1.244699 0.266258,0.43861 0.501556,0.90686 0.681126,1.41659 0.179569,0.50381 0.297218,1.05503 0.321986,1.62404 0.02477,0.57493 -0.05573,1.13801 -0.204337,1.65368 -0.303411,1.03725 -0.786391,1.93225 -1.35606,2.7087 0,0 -0.860695,1.17951 -0.860695,1.17951 -0.309603,0.37934 -0.66255,0.71718 -0.99692,1.07281 0,0 -0.507749,0.52752 -0.507749,0.52752 0,0 -0.569668,0.46232 -0.569668,0.46232 -0.383908,0.30228 -0.749239,0.6342 -1.157914,0.90685 -1.616126,1.12023 -3.418013,1.93225 -5.275629,2.5546 -3.758576,1.10838 -7.764833,1.30398 -11.579138,0.52159 -0.96596,-0.14225 -1.882383,-0.46824 -2.823575,-0.71718 0,0 -1.362252,-0.51567 -1.362252,-0.51567 -0.222914,-0.0889 -0.458212,-0.16596 -0.674934,-0.26672 0,0 -0.656357,-0.32006 -0.656357,-0.32006 -1.777119,-0.79424 -3.362285,-1.93818 -4.823609,-3.12954 -1.467516,-1.21507 -2.730695,-2.6198 -3.900993,-4.08381 -1.120761,-1.49957 -2.117682,-3.07619 -2.947417,-4.72394 -1.640894,-3.307346 -2.736887,-6.839929 -3.28798,-10.431782 -0.582052,-3.591854 -0.656357,-7.242979 -0.284834,-10.846687 0.173378,-1.801854 0.489172,-3.597781 0.928808,-5.364072 0.433444,-1.766291 0.978344,-3.5148 1.702814,-5.198111 0.712086,-1.689238 1.560397,-3.325132 2.56351,-4.883973 1.021689,-1.546986 2.185794,-3.005065 3.498509,-4.332747 1.294139,-1.345464 2.817384,-2.513112 4.427318,-3.502947 1.616126,-0.989834 3.3499,-1.807781 5.164171,-2.382714 1.814272,-0.580861 3.690464,-1.001689 5.61,-1.149868 1.913344,-0.142251 3.851456,-0.05927 5.740032,0.290431 1.90096,0.33192 3.727616,1.025397 5.39947,1.938178 1.69043,0.883146 3.238443,2.12192 4.340629,3.722251 0.5449,0.800166 0.959768,1.718874 1.126953,2.696854 0.185762,0.972053 0.09288,1.973741 -0.160993,2.904304 -0.526325,1.87298 -1.709007,3.467383 -3.164139,4.712085 -1.461324,1.250629 -3.244635,2.12192 -5.108443,2.613874 -1.87,0.491953 -3.820496,0.616424 -5.727648,0.420828 -1.907153,-0.195596 -3.783344,-0.717186 -5.504735,-1.54106 -1.727583,-0.817947 -3.263212,-1.99745 -4.532582,-3.354767 -2.569702,-2.738344 -4.092947,-6.247218 -4.687384,-9.82129 -0.613013,-3.585926 -0.27245,-7.30225 0.823543,-10.751852 1.077417,-3.467383 2.829768,-6.697681 4.928874,-9.667184 2.092913,-2.975429 4.538774,-5.695992 7.18278,-8.226885 5.294205,-5.044006 11.616291,-9.157449 18.631886,-11.69427 3.504701,-1.262483 7.195165,-2.104138 10.947544,-2.347151 3.75238,-0.248941 7.5605,0.130397 11.17665,1.173575 0.27865,0.07705 0.43345,0.361557 0.35295,0.628278 -0.0991,0.272649 -0.39629,0.420828 -0.67493,0.343775 0,0 0,0 0,0 0,0 0,0 0,0 z"
                 vector-effect="non-scaling-stroke" />
            </defs>
            <g
               transform="translate(-47.618081,-15.396161)"
               id="g291">
              <path
                 style="fill:#dadada;stroke-width:0px;stroke-linecap:butt;stroke-linejoin:miter"
                 d="m 112.83158,17.615493 c -3.48613,-1.01947 -7.16421,-1.39288 -10.80513,-1.167649 -3.640931,0.225232 -7.244706,1.025398 -10.675103,2.252318 -6.866986,2.471622 -13.071422,6.543575 -18.260362,11.5046 -2.588278,2.489404 -4.996986,5.18033 -7.034171,8.096489 -2.043377,2.910231 -3.733808,6.057548 -4.76788,9.400462 -1.052649,3.336986 -1.35606,6.869568 -0.767815,10.295461 0.575861,3.408112 2.030993,6.727317 4.445894,9.275992 1.201258,1.280264 2.613046,2.353079 4.210595,3.105827 1.591358,0.764602 3.343708,1.22692 5.120827,1.39288 3.535662,0.337848 7.26947,-0.557152 9.870132,-2.827251 1.287947,-1.120231 2.309635,-2.560529 2.736887,-4.137151 0.45202,-1.570695 0.123841,-3.212516 -0.835927,-4.569834 -0.947384,-1.35139 -2.334404,-2.465695 -3.900993,-3.259933 -1.541821,-0.823874 -3.219867,-1.446225 -4.97841,-1.730728 -1.752351,-0.308212 -3.548046,-0.367483 -5.325165,-0.219305 -1.783311,0.154106 -3.535662,0.56308 -5.226092,1.120232 -1.696623,0.557152 -3.306556,1.333609 -4.805033,2.270099 -1.498476,0.93649 -2.879304,2.015231 -4.086754,3.295496 -1.219835,1.256556 -2.303444,2.637582 -3.250828,4.101588 -0.928808,1.475861 -1.715198,3.034702 -2.377748,4.64096 -0.668741,1.606258 -1.170298,3.277714 -1.572781,4.966953 -0.396291,1.689238 -0.681126,3.408111 -0.835927,5.13884 -0.321987,3.461456 -0.216722,6.958475 0.371523,10.378441 0.557285,3.419966 1.640894,6.76288 3.201291,9.85093 0.792583,1.54105 1.739967,2.99913 2.786424,4.38016 1.095993,1.33954 2.272483,2.62573 3.62235,3.72225 1.362252,1.0906 2.77404,2.09229 4.371589,2.78576 0,0 0.588245,0.28451 0.588245,0.28451 0.198146,0.0889 0.408675,0.1541 0.613013,0.23115 0,0 1.226027,0.45047 1.226027,0.45047 0.854503,0.20745 1.678046,0.50381 2.551125,0.62235 1.721391,0.36155 3.492318,0.42083 5.244668,0.37341 1.758543,-0.0652 3.479934,-0.40897 5.151788,-0.88315 1.640894,-0.55715 3.213675,-1.27433 4.606887,-2.24046 0.352947,-0.23116 0.656357,-0.52752 0.990728,-0.78238 0,0 0.489172,-0.39712 0.489172,-0.39712 0,0 0.433444,-0.45047 0.433444,-0.45047 0.278642,-0.30821 0.588245,-0.59271 0.848311,-0.91278 0,0 0.730662,-1.00761 0.730662,-1.00761 0.501557,-0.66977 0.860696,-1.38696 1.052649,-2.05672 0.185762,-0.6757 0.160994,-1.28027 -0.0805,-1.95596 -0.117649,-0.33192 -0.284834,-0.66977 -0.48298,-0.99577 -0.204337,-0.32599 -0.464404,-0.62235 -0.687317,-0.94241 -0.272451,-0.27858 -0.538709,-0.56901 -0.835927,-0.8298 -0.328179,-0.231163 -0.60063,-0.515666 -0.959769,-0.699408 -1.356059,-0.85351 -2.984569,-1.35139 -4.656423,-1.511423 -1.678046,-0.154106 -3.399437,0.03556 -5.00937,0.515662 -1.62851,0.486026 -3.07745,1.256556 -4.377781,2.335299 -1.294139,1.07281 -2.396324,2.36493 -3.300364,3.78745 -1.820463,2.85096 -2.848344,6.19387 -3.343708,9.57827 -0.996921,6.82216 0.154801,13.87547 2.83596,20.3005 2.68735,6.43688 6.972251,12.27513 12.377912,16.93979 2.718311,2.31159 5.67192,4.3861 8.897979,6.02199 3.207483,1.66553 6.656457,2.89245 10.210695,3.71632 0,0 0.0062,0 0.0062,0 0.278642,0.0652 0.452019,0.33785 0.383907,0.60457 -0.06811,0.2608 -0.334371,0.42083 -0.606821,0.37341 -7.399503,-1.33953 -14.328409,-4.7595 -20.06225,-9.44195 -5.70288,-4.74172 -10.284999,-10.72814 -13.238607,-17.41989 -2.922649,-6.69176 -4.154868,-14.13626 -3.157947,-21.40295 0.507748,-3.62149 1.572781,-7.25483 3.603774,-10.48513 1.015497,-1.60626 2.260099,-3.11175 3.777152,-4.368308 0.755431,-0.60457 1.578974,-1.197285 2.476821,-1.66553 0.445828,-0.231159 0.891656,-0.462318 1.368444,-0.634205 0,0 0.699702,-0.278576 0.699702,-0.278576 0,0 0.72447,-0.219305 0.72447,-0.219305 1.925728,-0.563079 3.956721,-0.782384 5.97533,-0.592715 2.006225,0.201523 4.018642,0.806093 5.758609,1.908543 0.45202,0.243013 0.829735,0.610496 1.23841,0.912781 0.383907,0.337848 0.736854,0.717185 1.089801,1.090596 0.303411,0.4149 0.63159,0.806089 0.897848,1.244699 0.266258,0.43861 0.501556,0.90686 0.681126,1.41659 0.179569,0.50381 0.297218,1.05503 0.321986,1.62404 0.02477,0.57493 -0.05573,1.13801 -0.204337,1.65368 -0.303411,1.03725 -0.786391,1.93225 -1.35606,2.7087 0,0 -0.860695,1.17951 -0.860695,1.17951 -0.309603,0.37934 -0.66255,0.71718 -0.99692,1.07281 0,0 -0.507749,0.52752 -0.507749,0.52752 0,0 -0.569668,0.46232 -0.569668,0.46232 -0.383908,0.30228 -0.749239,0.6342 -1.157914,0.90685 -1.616126,1.12023 -3.418013,1.93225 -5.275629,2.5546 -3.758576,1.10838 -7.764833,1.30398 -11.579138,0.52159 -0.96596,-0.14225 -1.882383,-0.46824 -2.823575,-0.71718 0,0 -1.362252,-0.51567 -1.362252,-0.51567 -0.222914,-0.0889 -0.458212,-0.16596 -0.674934,-0.26672 0,0 -0.656357,-0.32006 -0.656357,-0.32006 -1.777119,-0.79424 -3.362285,-1.93818 -4.823609,-3.12954 -1.467516,-1.21507 -2.730695,-2.6198 -3.900993,-4.08381 -1.120761,-1.49957 -2.117682,-3.07619 -2.947417,-4.72394 -1.640894,-3.307346 -2.736887,-6.839929 -3.28798,-10.431782 -0.582052,-3.591854 -0.656357,-7.242979 -0.284834,-10.846687 0.173378,-1.801854 0.489172,-3.597781 0.928808,-5.364072 0.433444,-1.766291 0.978344,-3.5148 1.702814,-5.198111 0.712086,-1.689238 1.560397,-3.325132 2.56351,-4.883973 1.021689,-1.546986 2.185794,-3.005065 3.498509,-4.332747 1.294139,-1.345464 2.817384,-2.513112 4.427318,-3.502947 1.616126,-0.989834 3.3499,-1.807781 5.164171,-2.382714 1.814272,-0.580861 3.690464,-1.001689 5.61,-1.149868 1.913344,-0.142251 3.851456,-0.05927 5.740032,0.290431 1.90096,0.33192 3.727616,1.025397 5.39947,1.938178 1.69043,0.883146 3.238443,2.12192 4.340629,3.722251 0.5449,0.800166 0.959768,1.718874 1.126953,2.696854 0.185762,0.972053 0.09288,1.973741 -0.160993,2.904304 -0.526325,1.87298 -1.709007,3.467383 -3.164139,4.712085 -1.461324,1.250629 -3.244635,2.12192 -5.108443,2.613874 -1.87,0.491953 -3.820496,0.616424 -5.727648,0.420828 -1.907153,-0.195596 -3.783344,-0.717186 -5.504735,-1.54106 -1.727583,-0.817947 -3.263212,-1.99745 -4.532582,-3.354767 -2.569702,-2.738344 -4.092947,-6.247218 -4.687384,-9.82129 -0.613013,-3.585926 -0.27245,-7.30225 0.823543,-10.751852 1.077417,-3.467383 2.829768,-6.697681 4.928874,-9.667184 2.092913,-2.975429 4.538774,-5.695992 7.18278,-8.226885 5.294205,-5.044006 11.616291,-9.157449 18.631886,-11.69427 3.504701,-1.262483 7.195165,-2.104138 10.947544,-2.347151 3.75238,-0.248941 7.5605,0.130397 11.17665,1.173575 0.27865,0.07705 0.43345,0.361557 0.35295,0.628278 -0.0991,0.272649 -0.39629,0.420828 -0.67493,0.343775 0,0 0,0 0,0 0,0 0,0 0,0 z"
                 vector-effect="non-scaling-stroke"
                 id="path289" />
            </g>
          </g>
        </g>
      </g>
    </g>
  </g>
</svg>
