<svg version="1.2" xmlns="http://www.w3.org/2000/svg" xmlns:xlink="http://www.w3.org/1999/xlink" overflow="visible" preserveAspectRatio="none" viewBox="0 0 16.152813032394874 11.393346743830534" width="16.152813032394874" height="11.393346743830534"><g transform="translate(0, 0)"><defs><path id="path-16007796692784580" d="M112.28048423579709 22.274234060867094 C113.06687487705592 21.67559179366444 113.85326551831473 21.071022375301364 114.56535153205303 20.413108596494485 C115.2650534412046 19.749267666527185 115.87806661824888 19.008373771474393 116.13813281457068 18.131155399731888 C116.40439106318588 17.259864179149808 116.37962285401237 16.29373854000097 116.3486625925455 15.339467203172974 C116.3486625925455 15.339467203172974 116.28055001731835 13.893242320029925 116.28055001731835 13.893242320029925 C116.28055001731835 13.893242320029925 116.26816591273159 13.709500634056834 116.26816591273159 13.709500634056834 C116.26816591273159 13.709500634056834 116.26197386043822 13.614666215490077 116.26197386043822 13.614666215490077 C116.26197386043822 13.5672490062067 116.26197386043822 13.513904645762898 116.26816591273159 13.478341738800363 C116.28674206961172 13.324235808629382 116.3177023310786 13.199765634260515 116.35485464483885 13.075295459891645 C116.38581490630574 12.950825285522777 116.422967220066 12.826355111153907 116.46631158611963 12.70188493678504 C116.46631158611963 12.70188493678504 116.54061621364015 12.512216099651525 116.54061621364015 12.512216099651525 C116.55919237052028 12.470726041528568 116.56538442281365 12.452944588047302 116.6087287888673 12.381818774122236 C116.6087287888673 12.381818774122236 116.62111289345405 12.358110169480547 116.62111289345405 12.358110169480547 C116.62111289345405 12.358110169480547 116.63349699804081 12.340328715999279 116.63349699804081 12.340328715999279 C116.65207315492096 12.322547262518011 116.67064931180109 12.298838657876322 116.69541752097459 12.281057204395054 C116.7449539393216 12.24549429743252 116.80687446225537 12.215858541630409 116.86260293289575 12.204004239309565 C116.88117908977588 12.19214993698872 117.07932476316392 12.180295634667877 117.19697375673809 12.310692960197166 C117.25270222737848 12.36996447180139 117.27747043655198 12.429235983405613 117.28985454113874 12.476653192688993 C117.28985454113874 12.476653192688993 117.29604659343211 12.500361797330681 117.29604659343211 12.500361797330681 C117.29604659343211 12.500361797330681 117.30223864572548 12.535924704293214 117.30223864572548 12.535924704293214 C117.30223864572548 12.535924704293214 117.30223864572548 12.607050518218282 117.30223864572548 12.607050518218282 C117.30223864572548 12.607050518218282 117.22174196591158 12.36996447180139 117.22174196591158 12.36996447180139 C118.81929145760274 14.154036971088509 120.62117867497531 15.766222086723383 122.45402615381475 17.36655290003741 C124.28068158036085 18.97281086451186 126.1135290592003 20.60870458478842 127.74203881235833 22.481684351481878 C127.9897209040934 22.766187607182147 127.95256859033314 23.19294249073256 127.64915802795768 23.43595568830987 C127.5129328775034 23.542644409197475 127.35193951787562 23.595988769641277 127.19094615824781 23.590061618480853 C127.19094615824781 23.590061618480853 127.16617794907431 23.590061618480853 127.16617794907431 23.590061618480853 C127.16617794907431 23.590061618480853 123.38283399782124 23.566353013839162 123.38283399782124 23.566353013839162 C122.1196553299724 23.566353013839162 120.86266871441697 23.53671725803705 119.59949004656814 23.50708150223494 C118.33631137871933 23.465591444111983 117.0793247631639 23.412247083668184 115.81614609531506 23.33519411858269 C114.55296742746624 23.25221400233678 113.2959808119108 23.145525281449178 112.03899419635536 23.003273653599038 C111.85942467984745 22.985492200117772 111.7355836339799 22.831386269946794 111.75415979086003 22.659498886294546 C111.77273594774016 22.51132010728399 111.8965769936077 22.398704235235964 112.04518624864873 22.38684993291512 C113.30836491649754 22.280161212027515 114.57154358434637 22.20903539810245 115.83472225219519 22.16161818881907 C117.09790092004401 22.120128130696113 118.36107958789283 22.102346677214843 119.61806620344828 22.096419526054422 C120.88124487129708 22.102346677214843 122.1444235391459 22.10827382837527 123.40141015470137 22.1438367353378 C123.40141015470137 22.1438367353378 127.18475410595444 22.226816851583713 127.18475410595444 22.226816851583713 C127.18475410595444 22.226816851583713 126.6150852949638 23.335194118582688 126.6150852949638 23.335194118582688 C125.14137684914019 21.491850107691345 123.42617836387488 19.80261202697098 121.70478782631619 18.095592492769352 C119.9833972887575 16.388572958567725 118.21247033285182 14.693407726686939 116.6582652072143 12.808573657672639 C116.6582652072143 12.808573657672639 116.57776852740041 12.571487611255748 116.57776852740041 12.571487611255748 C116.57776852740041 12.583341913576591 116.57776852740041 12.589269064737016 116.57776852740041 12.601123367057859 C116.57776852740041 12.601123367057859 116.58396057969378 12.612977669378704 116.58396057969378 12.612977669378704 C116.58396057969378 12.612977669378704 116.59015263198715 12.624831971699548 116.59015263198715 12.624831971699548 C116.59634468428052 12.666322029822505 116.62111289345404 12.72559354142673 116.67684136409441 12.77893790187053 C116.78829830537519 12.9034080762394 116.98644397876325 12.87969947159771 116.99882808335 12.873772320437286 C117.04836450169702 12.867845169276864 117.1040929723374 12.844136564635175 117.14743733839104 12.80857365767264 C117.16601349527117 12.790792204191375 117.1845896521513 12.773010750710108 117.19697375673806 12.75522929722884 C117.19697375673806 12.75522929722884 117.20316580903143 12.749302146068418 117.20316580903143 12.749302146068418 C117.20316580903143 12.749302146068418 117.20316580903143 12.743374994907994 117.20316580903143 12.743374994907994 C117.21554991361819 12.719666390266305 117.19078170444467 12.761156448389261 117.1845896521513 12.773010750710107 C117.1845896521513 12.773010750710107 117.12266912921754 12.921189529720664 117.12266912921754 12.921189529720664 C117.07932476316391 13.027878250608266 117.04217244940365 13.134566971495868 117.01121218793676 13.241255692383469 C116.98025192646988 13.34794441327107 116.949291665003 13.460560285319096 116.93690756041624 13.54946755272543 C116.93690756041624 13.54946755272543 116.93071550812287 13.590957610848386 116.93071550812287 13.590957610848386 C116.93071550812287 13.590957610848386 116.93071550812287 13.67986487825472 116.93071550812287 13.67986487825472 C116.93071550812287 13.67986487825472 116.93690756041624 13.863606564227812 116.93690756041624 13.863606564227812 C116.93690756041624 13.863606564227812 116.98025192646988 15.321685749691705 116.98025192646988 15.321685749691705 C116.99263603105663 16.293738540000966 116.99882808335 17.30135423727276 116.69541752097454 18.29118848106329 C116.39200695859908 19.292877027174665 115.69849710174091 20.116751038473364 114.9678349311225 20.804300573082358 C114.23717276050404 21.50370441001219 113.4569741715386 22.131982433016958 112.67058353027977 22.74840615370088 C112.53435837982549 22.85509487458848 112.33002065414406 22.837313421107215 112.2185637128633 22.706916095577924 C112.10710677158254 22.576518770048633 112.12568292846264 22.3809227817547 112.26190807891693 22.274234060867094 C112.2742921835037 22.280161212027522 112.2742921835037 22.280161212027522 112.28048423579709 22.274234060867094 C112.28048423579709 22.274234060867094 112.28048423579709 22.274234060867094 112.28048423579709 22.274234060867094 Z" vector-effect="non-scaling-stroke"/></defs><g transform="translate(-111.75231776581334, -12.19716015467357)"><path style="stroke-width: 0px; stroke-linecap: butt; stroke-linejoin: miter; fill: rgb(218, 218, 218);" d="M112.28048423579709 22.274234060867094 C113.06687487705592 21.67559179366444 113.85326551831473 21.071022375301364 114.56535153205303 20.413108596494485 C115.2650534412046 19.749267666527185 115.87806661824888 19.008373771474393 116.13813281457068 18.131155399731888 C116.40439106318588 17.259864179149808 116.37962285401237 16.29373854000097 116.3486625925455 15.339467203172974 C116.3486625925455 15.339467203172974 116.28055001731835 13.893242320029925 116.28055001731835 13.893242320029925 C116.28055001731835 13.893242320029925 116.26816591273159 13.709500634056834 116.26816591273159 13.709500634056834 C116.26816591273159 13.709500634056834 116.26197386043822 13.614666215490077 116.26197386043822 13.614666215490077 C116.26197386043822 13.5672490062067 116.26197386043822 13.513904645762898 116.26816591273159 13.478341738800363 C116.28674206961172 13.324235808629382 116.3177023310786 13.199765634260515 116.35485464483885 13.075295459891645 C116.38581490630574 12.950825285522777 116.422967220066 12.826355111153907 116.46631158611963 12.70188493678504 C116.46631158611963 12.70188493678504 116.54061621364015 12.512216099651525 116.54061621364015 12.512216099651525 C116.55919237052028 12.470726041528568 116.56538442281365 12.452944588047302 116.6087287888673 12.381818774122236 C116.6087287888673 12.381818774122236 116.62111289345405 12.358110169480547 116.62111289345405 12.358110169480547 C116.62111289345405 12.358110169480547 116.63349699804081 12.340328715999279 116.63349699804081 12.340328715999279 C116.65207315492096 12.322547262518011 116.67064931180109 12.298838657876322 116.69541752097459 12.281057204395054 C116.7449539393216 12.24549429743252 116.80687446225537 12.215858541630409 116.86260293289575 12.204004239309565 C116.88117908977588 12.19214993698872 117.07932476316392 12.180295634667877 117.19697375673809 12.310692960197166 C117.25270222737848 12.36996447180139 117.27747043655198 12.429235983405613 117.28985454113874 12.476653192688993 C117.28985454113874 12.476653192688993 117.29604659343211 12.500361797330681 117.29604659343211 12.500361797330681 C117.29604659343211 12.500361797330681 117.30223864572548 12.535924704293214 117.30223864572548 12.535924704293214 C117.30223864572548 12.535924704293214 117.30223864572548 12.607050518218282 117.30223864572548 12.607050518218282 C117.30223864572548 12.607050518218282 117.22174196591158 12.36996447180139 117.22174196591158 12.36996447180139 C118.81929145760274 14.154036971088509 120.62117867497531 15.766222086723383 122.45402615381475 17.36655290003741 C124.28068158036085 18.97281086451186 126.1135290592003 20.60870458478842 127.74203881235833 22.481684351481878 C127.9897209040934 22.766187607182147 127.95256859033314 23.19294249073256 127.64915802795768 23.43595568830987 C127.5129328775034 23.542644409197475 127.35193951787562 23.595988769641277 127.19094615824781 23.590061618480853 C127.19094615824781 23.590061618480853 127.16617794907431 23.590061618480853 127.16617794907431 23.590061618480853 C127.16617794907431 23.590061618480853 123.38283399782124 23.566353013839162 123.38283399782124 23.566353013839162 C122.1196553299724 23.566353013839162 120.86266871441697 23.53671725803705 119.59949004656814 23.50708150223494 C118.33631137871933 23.465591444111983 117.0793247631639 23.412247083668184 115.81614609531506 23.33519411858269 C114.55296742746624 23.25221400233678 113.2959808119108 23.145525281449178 112.03899419635536 23.003273653599038 C111.85942467984745 22.985492200117772 111.7355836339799 22.831386269946794 111.75415979086003 22.659498886294546 C111.77273594774016 22.51132010728399 111.8965769936077 22.398704235235964 112.04518624864873 22.38684993291512 C113.30836491649754 22.280161212027515 114.57154358434637 22.20903539810245 115.83472225219519 22.16161818881907 C117.09790092004401 22.120128130696113 118.36107958789283 22.102346677214843 119.61806620344828 22.096419526054422 C120.88124487129708 22.102346677214843 122.1444235391459 22.10827382837527 123.40141015470137 22.1438367353378 C123.40141015470137 22.1438367353378 127.18475410595444 22.226816851583713 127.18475410595444 22.226816851583713 C127.18475410595444 22.226816851583713 126.6150852949638 23.335194118582688 126.6150852949638 23.335194118582688 C125.14137684914019 21.491850107691345 123.42617836387488 19.80261202697098 121.70478782631619 18.095592492769352 C119.9833972887575 16.388572958567725 118.21247033285182 14.693407726686939 116.6582652072143 12.808573657672639 C116.6582652072143 12.808573657672639 116.57776852740041 12.571487611255748 116.57776852740041 12.571487611255748 C116.57776852740041 12.583341913576591 116.57776852740041 12.589269064737016 116.57776852740041 12.601123367057859 C116.57776852740041 12.601123367057859 116.58396057969378 12.612977669378704 116.58396057969378 12.612977669378704 C116.58396057969378 12.612977669378704 116.59015263198715 12.624831971699548 116.59015263198715 12.624831971699548 C116.59634468428052 12.666322029822505 116.62111289345404 12.72559354142673 116.67684136409441 12.77893790187053 C116.78829830537519 12.9034080762394 116.98644397876325 12.87969947159771 116.99882808335 12.873772320437286 C117.04836450169702 12.867845169276864 117.1040929723374 12.844136564635175 117.14743733839104 12.80857365767264 C117.16601349527117 12.790792204191375 117.1845896521513 12.773010750710108 117.19697375673806 12.75522929722884 C117.19697375673806 12.75522929722884 117.20316580903143 12.749302146068418 117.20316580903143 12.749302146068418 C117.20316580903143 12.749302146068418 117.20316580903143 12.743374994907994 117.20316580903143 12.743374994907994 C117.21554991361819 12.719666390266305 117.19078170444467 12.761156448389261 117.1845896521513 12.773010750710107 C117.1845896521513 12.773010750710107 117.12266912921754 12.921189529720664 117.12266912921754 12.921189529720664 C117.07932476316391 13.027878250608266 117.04217244940365 13.134566971495868 117.01121218793676 13.241255692383469 C116.98025192646988 13.34794441327107 116.949291665003 13.460560285319096 116.93690756041624 13.54946755272543 C116.93690756041624 13.54946755272543 116.93071550812287 13.590957610848386 116.93071550812287 13.590957610848386 C116.93071550812287 13.590957610848386 116.93071550812287 13.67986487825472 116.93071550812287 13.67986487825472 C116.93071550812287 13.67986487825472 116.93690756041624 13.863606564227812 116.93690756041624 13.863606564227812 C116.93690756041624 13.863606564227812 116.98025192646988 15.321685749691705 116.98025192646988 15.321685749691705 C116.99263603105663 16.293738540000966 116.99882808335 17.30135423727276 116.69541752097454 18.29118848106329 C116.39200695859908 19.292877027174665 115.69849710174091 20.116751038473364 114.9678349311225 20.804300573082358 C114.23717276050404 21.50370441001219 113.4569741715386 22.131982433016958 112.67058353027977 22.74840615370088 C112.53435837982549 22.85509487458848 112.33002065414406 22.837313421107215 112.2185637128633 22.706916095577924 C112.10710677158254 22.576518770048633 112.12568292846264 22.3809227817547 112.26190807891693 22.274234060867094 C112.2742921835037 22.280161212027522 112.2742921835037 22.280161212027522 112.28048423579709 22.274234060867094 C112.28048423579709 22.274234060867094 112.28048423579709 22.274234060867094 112.28048423579709 22.274234060867094 Z" vector-effect="non-scaling-stroke"/></g></g></svg>