<svg version="1.2" xmlns="http://www.w3.org/2000/svg" xmlns:xlink="http://www.w3.org/1999/xlink" overflow="visible" preserveAspectRatio="none" viewBox="0 0 17 22" width="17" height="22"><g transform="translate(0, 0)"><defs><path id="path-16000727937521508" d="M13.901376443327262 21.064728256468246 C14.689039873935501 19.470663935471343 15.627680620156207 16.75632090505454 14.316436690072944 15.585862508082768 C13.107769023915388 15.769525319969967 12.130407436345235 15.770642333562703 11.335186648543806 15.589986865963748 C9.332741734722841 15.135018637218673 8.69890024294028 13.52965529411032 9.250205204478002 11.47379177662798 C6.556049822164725 13.96511874704329 6.442307350700764 17.638589795093154 7.441067297964022 21.175914071009533 C7.603295735240561 21.75053164036416 6.967671046816891 22.221181021469192 6.475466316812508 21.889170212050708 C6.30784583254983 21.776094066813936 2.3707174772694186 19.072276741405904 2.3707174772694186 14.90865153643889 C2.3707174772694186 8.087608032224809 10.012988796236694 7.794134191756671 10.012988796236694 0.6452471980663183 C10.012988796236694 0.09915643738844566 10.645344290818368 -0.1997306227984761 11.059173282740439 0.15152719006457857 C14.113024901799752 2.7437290803187504 19.66997512019818 8.974989407553377 19.358127993321432 14.706042455535982 C19.203541827363882 17.54720949079276 17.678102015035112 19.963954322860467 14.82422316215543 21.889170212050708 C14.284424064659046 22.25318775710801 13.610375734326139 21.65360923016122 13.901376443327262 21.064728256468246 Z" vector-effect="non-scaling-stroke"/></defs><g transform="translate(-2.3707174772694186, -0.00004554939828378392)"><path style="stroke-width: 0px; stroke-linecap: butt; stroke-linejoin: miter; fill: rgb(0, 255, 255);" d="M13.901376443327262 21.064728256468246 C14.689039873935501 19.470663935471343 15.627680620156207 16.75632090505454 14.316436690072944 15.585862508082768 C13.107769023915388 15.769525319969967 12.130407436345235 15.770642333562703 11.335186648543806 15.589986865963748 C9.332741734722841 15.135018637218673 8.69890024294028 13.52965529411032 9.250205204478002 11.47379177662798 C6.556049822164725 13.96511874704329 6.442307350700764 17.638589795093154 7.441067297964022 21.175914071009533 C7.603295735240561 21.75053164036416 6.967671046816891 22.221181021469192 6.475466316812508 21.889170212050708 C6.30784583254983 21.776094066813936 2.3707174772694186 19.072276741405904 2.3707174772694186 14.90865153643889 C2.3707174772694186 8.087608032224809 10.012988796236694 7.794134191756671 10.012988796236694 0.6452471980663183 C10.012988796236694 0.09915643738844566 10.645344290818368 -0.1997306227984761 11.059173282740439 0.15152719006457857 C14.113024901799752 2.7437290803187504 19.66997512019818 8.974989407553377 19.358127993321432 14.706042455535982 C19.203541827363882 17.54720949079276 17.678102015035112 19.963954322860467 14.82422316215543 21.889170212050708 C14.284424064659046 22.25318775710801 13.610375734326139 21.65360923016122 13.901376443327262 21.064728256468246 Z" vector-effect="non-scaling-stroke"/></g></g></svg>